/* XPM */
static char *a7240a5be0074af59f2d8c2fcb4c589aA3l9214oXV0iGz6x[] = {
/* columns rows colors chars-per-pixel */
"64 64 91 1 ",
"  c #020000",
". c #1B0503",
"X c #1D0603",
"o c #2A0B06",
"O c #311109",
"+ c #341209",
"@ c #39140B",
"# c #3A150C",
"$ c #321613",
"% c #1A2C21",
"& c #192E26",
"* c #29292D",
"= c #32292D",
"- c #3E3837",
"; c gray22",
": c #383839",
"> c #5C1B09",
", c #4F2B1B",
"< c #5B2E1D",
"1 c #662210",
"2 c #672414",
"3 c #4F3927",
"4 c #523121",
"5 c #5D3323",
"6 c #53412F",
"7 c #444447",
"8 c #4E4E4E",
"9 c #464554",
"0 c #474757",
"q c #48525B",
"w c #4A535D",
"e c #4E5660",
"r c #4C5C61",
"t c #525261",
"y c #535B65",
"u c #595966",
"i c #5A5A66",
"p c #546266",
"a c #5B6269",
"s c #61616D",
"d c #676771",
"f c #8A3626",
"g c #8B3627",
"h c #8D3727",
"j c #8E3727",
"k c #8B3728",
"l c #903828",
"z c #923A29",
"x c #943B2A",
"c c #983D2B",
"v c #993E2C",
"b c #993F2D",
"n c #D86445",
"m c #DB6546",
"M c #DC6646",
"N c #DC6647",
"B c #DD6747",
"V c #DE6747",
"C c #DD7158",
"Z c #DF7158",
"A c #E06848",
"S c #E06849",
"D c #E17359",
"F c #3EAE87",
"G c #3DB188",
"H c #3DB189",
"J c #6EC29B",
"K c #6DC39D",
"L c #6DC59D",
"P c #6EC59D",
"I c #6EC69E",
"U c #6FC69F",
"Y c #6FC8A0",
"T c #6FC9A0",
"R c #6FC9A1",
"E c #70C9A1",
"W c #9DDCBD",
"Q c #B9B9C9",
"! c #BABACA",
"~ c #BCBCCC",
"^ c #A0E0C0",
"/ c #A1E0C1",
"( c #A1E1C1",
") c #C0C0CF",
"_ c #C0C0D0",
"` c #C5C5D3",
"' c #EFEFEF",
"] c gray94",
"[ c #F3F3F3",
"{ c #F6F0F0",
"} c #F4F4F4",
/* pixels */
"YYYYEEEEEEEEEEEEUIETTRIETTTTEEEETTTTEEEEYYYYEEEEEEEEEEEEYYTTEEEE",
"YYYYEEEEEEEEEEEERUTTEIRETTTTEEEETTTTEEEEYYYYEEEEEEEEEEEERRTTEEEE",
"YYYYEEEEEEEEEEEERREIRRIIRRTTEEEETTTTEEEEYYYYEEEEEEEEEEEEIIEEEEEE",
"YYYYEEEEEEEEEEEETTRRIEERRRRREEEETTTTEEEEYYYYEEEEEEEEEEEEERRIEEEE",
"YYYYYYYYEEEEEEEEEEEEEEEERRRRRRRRYRRREEEERRRREEEEEEEEEEEERTTTEEEE",
"YYYYYYYYEEEEEEEEEEEEEEEERRRRRRRRRYRREEEERRRREEEEEEEEEEEERTTTEEEE",
"YYYYYYYYEEEEEEEEEEEEEEEERRRRRRRRYYRREEEERRRREEEEEEEEEEEERRTTEEEE",
"YYYYYYYYEEEEEEEEEEEEEEEERRRRRRRRYYRREEEERRRREEEEEEEEEEEERRTTEEEE",
"EEEEYYYYYYYYYYYYEEEEEEEEEIIEEEEEEEEEEEEEYRRREEEEEEEEIUYETTTTRRRR",
"EEEEYYYYYYYYYYYYEEEEEEEEEEEEEEEEEEEEEEEERRRREEEEEEEEERRITTTTRRRR",
"EEEEYYYYYYYYRRYYEEEEEEEEIETIEEEEEEEEEEEERRRREEEEEEEEYRRUTTTTRRRR",
"EEEEYYYYYYYYRRRREEEEEEEEEIEIEEEEEEEEEEEERRRREEEEEEEEURRUTTTTRRRR",
"EEEEEEEERRRRYYYYEEEEHHHHEEEEEEEEEEEEEEEEEEEEEEEEEEEEYRUREEEEEEEE",
"EEEEEEEERRRRYYYYEEEEHHHHEEEEEEEEEEEEEEEEEEEEEEEEEEEERRRUEEEEEEEE",
"EEEEEEEERRRRYYYYEEEEHHHHEEEEEEEEEEEEEEEEEEEEEEEEEEEERRRREEEEEEEE",
"EEEEEEEERRRRYYYYEEEEHHHHEEEEEEEEEEEEEEEEEEEEEEEEEEEERRRREEEEEEEE",
"EEEEEEEEHHHHURRUEEEEGGGGERITEEEEGGGGTETTREEIYRRRIIETRYRUEEEEEEEE",
"EEEEEEEEHHHHRRUREEEEGGGGIRETEEEEGGGGIITTIIRRRYRRERTTRRUREEEEEEEE",
"EEEEEEEEHHGGRURUEEEEGGGGIEYYEEEEGGGGEETTERIERIRRRRTTRRRREEEEEEEE",
"EEEEEEEEHGGGRRUREEEEGGGGRRYYEEEEGGGHEITTEIURRERRRRRRRRRTEEEEEEEE",
"EEEEEEEEEEEEGGGGEEEEEEEEEEEEHHHHEEEEEEEEEEEETRRREEEERRRRUREIEEEE",
"EEEEEEEEEEEEGGGGEEEEEEEEEEEEFFFFEUUUTIEEEEEETTRREEEERRRRIRYUEEEE",
"EEEEEEEEEEEEGGHGEEEEEEEEEEEP3,,,4446UIEEEEEETTEIEEEERRRREYRREEEE",
"EEEEEEEEEEEEGGHHEEEEEEEEEEPP<>>>>>>5UREEEEEEEIRREEEERRRRRRUREEEE",
"EEEEYYYREEEEYYYYEEEEEEEEEI65nMMMBMMM56IUEEEETTEEEEEERRRRUIEREEEE",
"EEEEYYYYEEEEYYYYEEEEEEEEUL52DDMSVMMM15LUEEEETTITEEEEYRRRREIREEEE",
"EEEEYYRREEEEYYYYEEEERELU65MC{{DBbzxbBM53ITTTTTTEEEEERURRIIEEEEEE",
"EEEERRRREEEEYYYYEEEERRIU51MD{{DBzzzzMM25IITITTTIEEEEURRTERRIEEEE",
"EEEEEEEERYYYEEEEEEEEEU65nMvbZDMBzlllzvMn56UUREEIRRIERRRREEEEIIET",
"EEEEEEEEYYYYEEEEEEEEEU4>MMxzMBMMzflllzBM>4IUIIRRIEIRRRRREEEEERTT",
"EEEEEEEEYYYYEEEEEEEEEU%+MMzlzz#OXolllxBM+%RTERIETTETRRRREEEERRTT",
"EEEEEEEEYYYYEEEEEEEEEU&$Mnzllf=**=flllMn$&ITEIRTTTTTRRRREEEERRRR",
"EEEEEEEERRRREEEERRYYYLw9$#flo=Q~~Q=olh@$9qUIRREEIIEREEEEERIERRIE",
"EEEEEEEERRRREEEERYYYYYw0:-ff.*~))~*.ff=*0wUURREEEREIEEEEEIREIEIR",
"EEEEEEEERRRREEEERYYYYYwu''-. *~))~* X=QQtwURREEERERIEEEERRIIEIER",
"EEEEEEEERRRREEEEYYYYYYra''8;:7~~~Q7::7QQprIRREEEIIREEEEEIEERRREI",
"RTTTUIERTRRREEEEYYYYRRYPad][[]7**7]}}]syUUUR((((EEEEEEEEURUREEEE",
"IETTRRURRRRREEEEYYRRRRYYra]}[[8::8]}}]arRRII((((EEEEEEEEIURREEEE",
"RRTTRUURURRREEEERIRRRRYYYPas)`]}}]`_saPPRRRR((((EEEEEEEEERRREEEE",
"RTTTRURURYRREEEERRRIYYYYYPry~)}{}{_QyrYYRRRT((((EEEEEEEEEIRREEEE",
"RRRREEEETTTTTTRRITRRREEETTIIpriiiitiKYYYYYYY((((EEEEEEEE((((LIIT",
"RRUREEEETTTTTTRRTTRREEEETTEIwwwwreepYYYYYYRY((((EEEEEEEE((((UUTT",
"RRRREEEETTEITTTTTTTREEEEETIRETTUWWWWYYYYIRIR((((EEEEEEEE((((EETT",
"RRRUEEEEEIRRTTTTTTTTEEEEIREUEETE//((YYYPERIR((((EEEEEEEE((((EETT",
"EEEEEEEEIEUUEEEERRRRTTTTEEEEEEEEYYEE((^^TTEETTRRRRRR((((RRRRTTRR",
"EEEEEEEEURRREEEEYRRRTTTTEEEEEEEEYYEE/(^^TTEETTRRRRRR((((RRRETTYR",
"EEEEEEEEURRUEEEERURRTTTTEEEEEEEEYEEE/^^^TEEETRRRRRRR((((RRRIURRY",
"EEEEEEEERRUREEEEURRRTTTTEEEEEEEEYEEE/^^^EEEETRRRRRRR((((RREIRYYR",
"UURREEEEEEEEETTTYRURRRRRRRRREEEEREEIEEEETTTTEEEERRIEEEEEIERIEEEE",
"RRRUEEEEEEEETTRRRRRURRRRRRRREEEEIIRREEEETTTEEEEEIEIREEEEIREIEEEE",
"TERUEEEEEEEERRRRRRRRRRRRRRRREEEEERIEEEEETTRIEEEEEIEREEEEEERREEEE",
"IIEIEEEEEEEERRRRRRRRRRRRRRRREEEEEIREEEEETTEIEEEERREIEEEERIIEEEEE",
"EEEEEEEEEEEERRRURRRRRTTTRRRREEEETTTTERIIEEEEEEEEEEEEEEEEEEEEEEEE",
"EEEEEEEEEEEERRRRRRRRRTTTRRRREEEETTTTIREREEEEEEEEEEEEEEEEEEEEEEEE",
"EEEEEEEEEEEEURURRRRRRRTTRRRREEEETTTTIERTEEEEEEEEEEEEEEEEEEEEEEEE",
"EEEEEEEEEEEERRURRRRRRRTTRRRREEEETTTTREITEEEEEEEEEEEEEEEEEEEEEEEE",
"EEEEEEEEEEEEEEEEEEEETRIERTTTEEEERIERIIERRIEERIEREEEEEEEEEEEEEEEE",
"EEEEEEEEEEEEEEEEEEEEEIRERTTTEEEEREIREREIEIRIREIREEEEEEEEEEEEEEEE",
"EEEEEEEEEEEEEEEEEEEERRIIRRTTEEEEIIEERERIERURIIEEEEEEEEEEEEEEEEEE",
"EEEEEEEEEEEEEEEEEEEEIEERRREIEEEEERRIIIREIURUERRIEEEEEEEEEEEEEEEE",
"EEEEEEEEEEEEEEEEEEEETTRETRRREEEEIRREEERIRRRRRRRREEEERRRREEEEEEEE",
"EEEEEEEEEEEEEEEEEEEETEIIRRRREEEEEEIIRIRERRRURRRREEEERRRREEEEEEEE",
"EEEEEEEEEEEEEEEEEEEETTERRURREEEERIERIRIEERIRRRRREEEERRRREEEEEEEE",
"EEEEEEEEEEEEEEEEEEEETTIRURYREEEEREIREEIRIRERRRRREEEERRREEEEEEEEE"
};
