/* XPM */
static char *d9fc33f297844a3eabff65b24961bc95dWnNvrc4zA6lCFAU[] = {
/* columns rows colors chars-per-pixel */
"64 64 177 2 ",
"   c black",
".  c #040201",
"X  c #110303",
"o  c #130303",
"O  c #150707",
"+  c #170907",
"@  c #150708",
"#  c #050515",
"$  c #060717",
"%  c #0B0816",
"&  c #180C19",
"*  c #190C19",
"=  c #280505",
"-  c #290505",
";  c #210D0D",
":  c #2E0808",
">  c #3A0B0B",
",  c #261D05",
"<  c #231608",
"1  c #28170A",
"2  c #2E1B13",
"3  c #351F17",
"4  c #122A1F",
"5  c #132A1F",
"6  c #2D200C",
"7  c #39200B",
"8  c #282019",
"9  c #37281C",
"0  c #142C21",
"q  c #1D2D22",
"w  c #132028",
"e  c #16222F",
"r  c #152B28",
"t  c #162B28",
"y  c #172D2A",
"u  c #1E3E2F",
"i  c #1F2F3A",
"p  c #1E3E30",
"a  c #2D2E2A",
"s  c #382A26",
"d  c #283122",
"f  c #293122",
"g  c #333427",
"h  c #3B3B2C",
"j  c #662727",
"k  c #672928",
"l  c #692929",
"z  c #692A29",
"x  c #692B2B",
"c  c #6C2828",
"v  c #6E2929",
"b  c #6E2A2A",
"n  c #6C2F29",
"m  c #732A2A",
"M  c #732D2A",
"N  c #782E2B",
"B  c #6D3731",
"V  c #673831",
"C  c #663C34",
"Z  c #6E3B35",
"A  c #683C35",
"S  c #733D3D",
"D  c #773E3E",
"F  c #7A3E3F",
"G  c #654338",
"H  c #69493E",
"J  c #694A3E",
"K  c #78423F",
"L  c #7A433F",
"P  c #79453E",
"I  c #7F463F",
"U  c #363673",
"Y  c #373776",
"T  c #3B3774",
"R  c #3D3876",
"E  c #3A3F7A",
"W  c #743E42",
"Q  c #7A3F43",
"!  c #443774",
"~  c #453876",
"^  c #493874",
"/  c #3B407A",
"(  c #3A4578",
")  c #3B4678",
"_  c #784040",
"`  c #7A4340",
"'  c #7C4441",
"]  c #7C4740",
"[  c #7E4643",
"{  c #764B46",
"}  c #784D48",
"|  c #77574E",
" . c #7D514A",
".. c #7A514C",
"X. c #7C5D55",
"o. c #4E4579",
"O. c #514577",
"+. c #BA3636",
"@. c #BA3737",
"#. c #BC3737",
"$. c #BD3737",
"%. c #BA3837",
"&. c #BC3F37",
"*. c #BE3938",
"=. c #BE3839",
"-. c #BA383C",
";. c #BD383C",
":. c #C03838",
">. c #C03A38",
",. c #C33B39",
"<. c #BD4038",
"1. c #A2733D",
"2. c #A3743F",
"3. c #A4743F",
"4. c #C04038",
"5. c #C3493A",
"6. c #C24E3A",
"7. c #814B46",
"8. c #845341",
"9. c #845441",
"0. c #80544D",
"q. c #825850",
"w. c #A57540",
"e. c #A97743",
"r. c #F26546",
"t. c #F46647",
"y. c #F66747",
"u. c #F86848",
"i. c #B29337",
"p. c #B59537",
"a. c #B69338",
"s. c #B69638",
"d. c #B89538",
"f. c #B89838",
"g. c #BB9B3A",
"h. c #B29544",
"j. c #B69845",
"k. c #B3994F",
"l. c #D08A6C",
"z. c #D28C6D",
"x. c #D69070",
"c. c #F2D156",
"v. c #F4D457",
"b. c #F6D657",
"n. c #F8D858",
"m. c #3DB188",
"M. c #3DB189",
"N. c #42AB83",
"B. c #42AB84",
"V. c #40AE86",
"C. c #6C9ABA",
"Z. c #729DB9",
"A. c #789FB9",
"S. c #6BC09A",
"D. c #6FC19A",
"F. c #6CC29B",
"G. c #6FC29B",
"H. c #6EC29C",
"J. c #6DC49D",
"K. c #6DC59D",
"L. c #6FC59D",
"P. c #6FC69F",
"I. c #70C29C",
"U. c #70C69E",
"Y. c #6FC8A0",
"T. c #6FC9A0",
"R. c #6FC9A1",
"E. c #70C9A1",
"W. c #EFB98C",
"Q. c #F0B98B",
"!. c #F3BB8D",
"~. c #F2BB8E",
"^. c #9ED9BA",
"/. c #A0DDBE",
"(. c #A0E0C0",
"). c #A1E0C1",
"_. c #A1E1C1",
/* pixels */
"Y.Y.Y.Y.E.E.E.E.E.E.E.E.E.E.E.E.Y.Y.Y.Y.R.R.Y.Y.Y.R.P.R.E.E.E.E.R.P.T.T.E.E.E.E.Y.Y.Y.Y.E.E.E.E.E.E.E.E.E.E.E.E.R.R.Y.R.E.E.E.E.",
"Y.Y.Y.Y.E.E.E.E.E.E.E.E.E.E.E.E.Y.Y.Y.Y.Y.Y.Y.Y.R.R.R.R.E.E.E.E.P.R.T.T.E.E.E.E.Y.Y.Y.Y.E.E.E.E.E.E.E.E.E.E.E.E.R.R.Y.Y.E.E.E.E.",
"Y.Y.Y.Y.E.E.E.E.E.E.E.E.E.E.E.E.Y.Y.Y.Y.Y.Y.Y.Y.R.R.R.R.E.E.E.E.T.T.T.T.E.E.E.E.Y.Y.Y.Y.E.E.E.E.E.E.E.E.E.E.E.E.R.Y.Y.Y.E.E.E.E.",
"Y.Y.Y.Y.E.E.E.E.E.E.E.E.E.E.E.E.Y.Y.Y.Y.Y.Y.Y.Y.R.R.R.R.E.E.E.E.T.T.T.T.E.E.E.E.Y.Y.Y.Y.E.E.E.E.E.E.E.E.E.E.E.E.R.Y.Y.Y.E.E.E.E.",
"Y.Y.Y.Y.Y.Y.Y.Y.E.E.E.E.E.E.E.E.E.E.E.E.E.E.E.E.R.R.R.R.R.R.R.R.Y.R.R.R.E.E.E.E.R.R.R.R.E.E.E.E.E.E.E.E.E.E.E.E.R.R.R.R.E.E.E.E.",
"Y.Y.Y.Y.Y.Y.Y.Y.E.E.E.E.E.E.E.E.E.E.E.E.E.E.E.E.R.R.R.R.R.R.R.R.R.R.R.T.E.E.E.E.R.R.R.R.E.E.E.E.E.E.E.E.E.E.E.E.R.R.R.R.E.E.E.E.",
"Y.Y.Y.Y.Y.Y.Y.Y.E.E.E.E.E.E.E.E.E.E.E.E.E.E.E.E.R.R.R.R.R.R.R.R.P.R.T.T.E.E.E.E.Y.R.P.E.E.E.E.E.E.E.E.E.E.E.E.E.R.R.R.P.E.E.E.E.",
"Y.Y.Y.Y.Y.Y.Y.Y.E.E.E.E.E.E.E.E.E.E.E.E.E.E.E.E.R.R.R.R.R.R.R.R.R.P.T.T.E.E.E.E.Y.Y.Y.E.E.E.E.E.E.E.E.E.E.E.E.E.R.R.P.R.E.E.E.E.",
"E.E.E.E.Y.Y.Y.Y.Y.Y.Y.Y.Y.Y.Y.Y.E.E.E.E.E.E.E.E.Y.Y.Y.Y.E.E.E.E.E.E.E.E.E.E.E.E.Y.Y.Y.Y.E.E.E.E.E.E.E.E.P.R.R.P.P.T.T.T.T.T.T.R.",
"E.E.E.E.Y.Y.Y.Y.Y.Y.Y.Y.Y.Y.Y.Y.E.E.E.E.E.E.E.E.Y.Y.Y.Y.E.E.E.E.E.E.E.E.E.E.E.E.Y.Y.R.Y.E.E.E.E.E.E.E.E.P.R.P.P.T.T.T.T.T.T.R.R.",
"E.E.E.E.Y.Y.Y.Y.Y.Y.Y.Y.R.R.Y.Y.E.E.E.E.E.E.E.E.Y.Y.U.Y.E.E.E.E.E.E.E.E.E.E.E.Y.R.R.R.R.E.E.E.E.E.E.E.E.R.P.R.R.T.T.T.T.R.R.R.R.",
"E.E.E.E.Y.Y.Y.Y.Y.Y.Y.Y.R.R.R.R.E.E.E.E.E.E.E.E.H.U.U.I.U.U.U.Y.U.U.U.U.U.U.U.P.R.R.R.R.E.E.E.E.E.E.E.E.R.R.P.R.T.T.T.T.R.R.R.R.",
"E.E.E.E.E.E.E.E.R.R.R.R.Y.Y.Y.Y.E.E.E.E.M.M.M.V.H A A A C C A A G C C Z C A V H E.E.E.E.E.E.E.E.E.E.E.E.R.Y.R.P.E.E.E.E.E.E.E.E.",
"E.E.E.E.E.E.E.E.R.R.R.R.Y.Y.Y.Y.E.E.E.E.M.M.V.N.Z b M M M m M M M M M M M M m Z I.E.E.E.E.E.E.E.E.E.E.E.R.R.P.R.E.E.E.E.E.E.E.E.",
"E.E.E.E.E.E.E.E.R.R.R.R.Y.Y.Y.Y.E.E.E.E.M.M.G B =.,.r.y.y.t.t.y.y.t.t.t.u.r.*.*.Z H U.E.E.E.E.E.E.E.E.E.R.R.R.R.E.E.E.E.E.E.E.E.",
"E.E.E.E.E.E.E.E.R.R.R.R.Y.Y.Y.Y.E.E.E.Y.M.N.V c =.,.y.y.u.u.y.u.u.u.u.u.u.y.<.,.b C U.E.E.E.E.E.E.E.E.E.R.R.R.T.E.E.E.E.E.E.E.E.",
"E.E.E.E.E.E.E.E.M.M.M.M.P.R.R.P.E.E.E.E.m.V.C M r.y.y.u.u.u.u.u.u.u.u.u.u.u.y.r.M C L.L.R.R.Y.Y.P.T.T.T.Y.R.P.R.E.E.E.E.E.E.E.E.",
"E.E.E.E.E.E.E.E.M.M.M.M.R.R.P.R.E.E.E.E.m.N.B N y.u.u.u.u.u.u.u.u.u.u.u.u.u.y.y.N Z G.L.Y.R.R.Y.T.T.T.T.R.R.R.P.E.E.E.E.E.E.E.E.",
"E.E.E.E.E.E.E.E.M.M.m.m.R.P.R.P.E.E.E.U.G B *.>.y.y.u.u.u.u.u.u.u.u.u.u.u.u.u.u.,.+.B H Y.Y.Y.Y.R.R.T.T.R.R.R.R.E.E.E.E.E.E.E.E.",
"E.E.E.E.E.E.E.E.M.m.m.m.R.R.P.R.E.E.E.U.V b *.>.y.y.u.u.u.u.u.u.u.u.u.u.u.u.y.y.>.*.x G Y.Y.Y.Y.R.R.R.T.R.R.R.R.E.E.E.E.E.E.E.E.",
"E.E.E.E.E.E.E.E.E.E.E.E.m.m.m.m.E.E.E.U.C b *.>.,.,.u.y.u.u.u.u.u.u.u.u.u.y.,.,.,.$.b C Y.Y.Y.Y.E.E.E.E.R.R.R.R.R.R.P.P.E.E.E.E.",
"E.E.E.E.E.E.E.E.E.E.E.E.m.m.m.m.E.E.E.U.C b $.>.:.,.y.y.y.y.y.u.y.y.y.y.y.y.,.=.=.*.b C J.Y.Y.Y.E.E.E.E.R.R.R.R.P.P.R.R.E.E.E.E.",
"E.E.E.E.E.E.E.E.E.E.E.E.m.m.M.m.E.E.E.U.5 : $.:.:.:.,.,.,.,.:.,.,.,.,.,.:.,.:.:.$.$.: q Y.Y.Y.Y.E.E.E.E.R.R.R.R.P.T.P.R.E.E.E.E.",
"E.E.E.E.E.E.E.E.E.E.E.E.m.m.M.M.E.E.U.U.5 = +.$.:.:.:.:.:.:.:.:.:.:.:.:.:.:.:.:.$.+.- 5 Y.Y.Y.Y.E.E.E.E.R.R.R.R.P.R.R.P.E.E.E.E.",
"E.E.E.E.Y.Y.Y.R.E.E.E.E.Y.Y.Y.Y.E.E.E.U.0 o b m *.:.:.:.:.:.:.:.:.:.:.:.:.:.:.$.M c X 0 L.L.Y.Y.E.E.E.E.Y.R.R.R.T.R.P.T.E.E.E.E.",
"E.E.E.E.Y.Y.Y.Y.E.E.E.E.Y.Y.Y.Y.E.E.L.G.f < l c $.$.:.:.:.>.$.$.=.*.:.:.:.:.$.+.b j 1 f S.L.Y.Y.E.E.E.E.R.Y.R.R.T.P.R.T.E.E.E.E.",
"E.E.E.E.Y.Y.R.R.E.E.E.E.Y.Y.Y.Y.Y.L.u f 1.3.L Q m m $.$.*.$.> - - > $.=.$.*.m c D _ 1.1.f p L.Y.E.E.E.E.Y.Y.R.R.R.R.P.P.E.E.E.E.",
"E.E.E.E.R.R.R.R.E.E.E.E.Y.Y.Y.Y.E.L.0 < 3.e.L _ l b $.$.*.+.: X X : +.$.$.+.m l D ] e.w.< 0 L.Y.E.E.E.E.Y.Y.R.R.P.T.T.R.E.E.E.E.",
"E.E.E.E.E.E.E.E.R.Y.Y.Y.E.E.E.E.E.Y.0 2 z.z.3 + D D l c M c j j j j b b b m D D + 9 z.l.6 0 P.R.Y.Y.R.P.R.R.R.R.E.E.E.E.T.T.T.T.",
"E.E.E.E.E.E.E.E.Y.Y.Y.Y.E.E.E.E.Y.L.p g l.z.2 O W _ l k n b l l l l n n l l _ _ + 2 z.z.g u P.T.Y.Y.P.R.R.R.R.R.E.E.E.E.T.T.T.T.",
"E.E.E.E.E.E.E.E.Y.Y.Y.Y.E.E.E.E.Y.E.Y.S.g 2 . O K K D L 3.w.] W K P 1.w._ S _ S + . 2 g K.K.R.P.T.T.R.P.R.R.R.R.E.E.E.E.R.R.T.T.",
"E.E.E.E.E.E.E.E.Y.Y.Y.Y.E.E.E.E.E.E.Y.Y.u 5 . O S D W K 3.w.] W _ P w.w._ _ _ S +   0 u K.P.T.T.T.T.T.T.R.R.R.R.E.E.E.E.R.R.R.R.",
"E.E.E.E.E.E.E.E.R.R.R.R.E.E.E.E.Y.R.Y.Y.L.S.5 . O O + ; _ _ L F _ Q L L + + + + . 4 S.S.Y.Y.E.E.Y.Y.Y.Y.E.E.E.E.Y.Y.Y.Y.Y.Y.Y.Y.",
"E.E.E.E.E.E.E.E.R.R.R.R.E.E.E.E.Y.Y.Y.Y.L.S.r $ O + , 6 S D D Q K D S K , 6 + O . 4 F.L.Y.Y.E.E.Y.Y.Y.Y.E.E.E.E.Y.Y.Y.Y.Y.Y.Y.Y.",
"E.E.E.E.E.E.E.E.R.R.R.R.E.E.E.E.Y.Y.Y.G.u y U T W P i.i.6 + @ @ O O O 2 i.i.P D O . 0 p Y.Y.Y.E.Y.Y.Y.Y.E.E.E.E.Y.Y.Y.Y.Y.Y.Y.Y.",
"E.E.E.E.E.E.E.E.R.R.R.R.E.E.E.E.Y.Y.H.G.h s T R Q I f.i.7 - - - = - - 7 p.p.I F & % 9 h H.Y.E.E.Y.Y.Y.Y.E.E.E.E.Y.Y.Y.Y.Y.Y.Y.Y.",
"R.T.T.T.P.T.P.R.R.R.R.R.E.E.E.E.Y.Y.| | Q.~.o.~ -.<.d.d.<.+.*.+.$.$.$.&.p.a.<.-.! o.W.W.q.X./.(.E.E.E.E.E.E.E.E.Y.Y.Y.Y.E.E.E.E.",
"P.T.T.T.P.R.T.T.R.R.P.R.E.E.E.E.Y.Y.} 8.!.~.O.^ -.4.a.a.6.5.5.5.5.5.5.6.a.a.4.;.^ O.~.~.7.} /.(.E.E.E.E.E.E.E.E.Y.R.R.Y.E.E.E.E.",
"R.R.T.T.P.R.R.P.R.P.R.P.E.E.E.E.E.L.} ] x.x.] Q $.*.[ 8.c.v.b.b.v.v.v.c.8.7.*.*.Q [ x.x.[ ..(.(.E.E.E.E.E.E.E.E.Y.Y.Y.Y.E.E.E.E.",
"R.R.T.T.R.P.P.R.P.R.P.R.E.E.E.E.E.L.|  .z.z._ F +.+.7.9.v.n.n.n.n.n.n.c.8.[ @.+.Q [ z.z.0.X.(.(.E.E.E.E.E.E.E.E.Y.Y.Y.Y.E.E.E.E.",
"T.R.P.R.E.E.E.E.Y.Y.Y.R.R.R.R.R.Y.Y.Y.U. .[ ; @ = 7 i.f.n.n.n.n.n.n.n.b.f.p.7 - + ; ]  .^._._.(.E.E.E.E.E.E.E.E._._.(.(.L.Y.Y.Y.",
"R.R.R.Y.E.E.E.E.Y.Y.Y.Y.R.R.R.R.Y.Y.Y.Y.| { * $ w a i.f.b.b.b.b.v.b.b.v.g.p.a w $ & { | _._._._.E.E.E.E.E.E.E.E._._.(.(.Y.Y.Y.Y.",
"R.R.R.R.E.E.E.E.Y.Y.R.Y.P.R.R.R.Y.R.R.R.Y.H.( E C.Z.j.f.f.f.g.g.g.g.g.g.f.j.Z.C.E ( G.L._._._._.E.E.E.E.E.E.E.E._._._._.E.E.Y.Y.",
"R.R.R.R.E.E.E.E.R.R.R.Y.R.R.R.R.R.R.R.R.Y.Y.( E C.Z.k.j.f.f.f.f.d.d.f.f.j.k.Z.C.E ( Y.Y._._._._.E.E.E.E.E.E.E.E._._._._.E.E.E.Y.",
"E.E.E.E.E.E.E.E.Y.Y.Y.Y.E.E.E.E.Y.Y.Y.Y.Y.L.y $ w i Z.A.j.f.] _ I 7.p.j.A.Z.i w $ y H.Y.Y.Y.R.R.Y.R.R.R._._._._.R.R.R.R.Y.R.Y.Y.",
"E.E.E.E.E.E.E.E.Y.Y.Y.Y.E.E.E.E.Y.Y.Y.Y.E.L.0 . $ e C.Z.h.i.P K P P i.h.Z.C.e # . 0 Y.Y.Y.Y.R.R.R.R.R.R._._._._.R.R.R.R.Y.R.Y.Y.",
"E.E.E.E.E.E.E.E.Y.Y.Y.Y.E.E.Y.E.Y.Y.Y.Y.Y.S.0 # U Y / ( 8 6 + @ + + , 8 / / Y U # 0 L.Y.Y.R.R.R.R.R.R.R._._._._.R.R.Y.R.Y.Y.Y.Y.",
"E.E.E.E.E.E.E.E.Y.Y.Y.Y.E.E.Y.Y.Y.Y.Y.Y.Y.L.p r U Y Y U y 4 0 0 5 5 5 r U Y Y U r u Y.Y.Y.R.R.R.R.R.R.R._._._._.R.R.Y.Y.Y.Y.Y.Y.",
"P.R.P.R.E.E.E.E.E.E.E.E.P.T.T.T.R.Y.R.P.R.R.R.L.r $ $ r L.L.L.Y.K.K.K.K.y $ $ y P.P.R.Y.E.E.E.E.Y.Y.Y.Y.E.E.E.E.Y.Y.Y.Y.E.E.E.E.",
"R.P.P.R.E.E.E.E.E.E.E.E.R.P.T.T.R.R.P.R.R.P.R.R.p 0 0 p Y.E.Y.Y.P.P.P.P.u 0 0 u L.R.R.Y.E.E.E.E.Y.Y.Y.Y.E.E.E.E.Y.Y.Y.Y.E.E.E.E.",
"R.P.R.R.E.E.E.E.E.E.E.E.R.R.T.T.R.R.R.R.P.T.T.R.Y.K.K.Y.E.E.E.E.P.P.R.P.P.P.P.P.P.P.Y.Y.E.E.E.E.Y.Y.Y.Y.E.E.E.E.Y.Y.Y.Y.E.E.E.E.",
"R.R.P.P.E.E.E.E.E.E.E.E.R.T.T.T.R.R.R.T.T.T.T.T.Y.R.R.R.E.E.E.E.P.R.P.P.P.P.E.E.R.P.Y.Y.E.E.E.E.Y.Y.Y.Y.E.E.E.E.Y.Y.Y.Y.E.E.E.E.",
"E.E.E.E.E.E.E.E.E.E.E.E.R.R.R.R.R.R.R.R.T.T.T.T.Y.R.R.R.R.Y.E.E.P.T.T.T.R.R.P.P.P.T.T.T.E.E.E.E.E.E.E.E.E.E.E.E.E.E.E.E.E.E.E.E.",
"E.E.E.E.E.E.E.E.E.E.E.E.R.R.R.R.R.R.R.R.R.T.T.T.R.R.R.R.Y.Y.R.R.T.T.T.T.P.R.P.R.T.T.T.T.E.E.E.E.E.E.E.E.E.E.E.E.E.E.E.E.E.E.E.E.",
"E.E.E.E.E.E.E.E.E.E.E.E.R.P.R.R.R.R.R.R.R.R.T.T.R.R.R.R.R.R.R.R.T.T.T.T.P.R.R.R.E.E.E.E.E.E.E.E.E.E.E.E.E.E.E.E.E.E.E.E.E.E.E.E.",
"E.E.E.E.E.E.E.E.E.E.E.E.P.R.Y.R.R.R.R.R.R.R.P.R.R.R.R.R.R.R.R.R.T.T.T.T.R.R.Y.T.E.E.E.E.E.E.E.E.E.E.E.E.E.E.E.E.E.E.E.E.E.E.E.E.",
"E.E.E.E.E.E.E.E.E.E.E.E.E.E.E.E.E.E.E.E.P.T.T.R.R.R.R.R.E.E.E.E.T.T.P.T.T.R.P.P.Y.Y.Y.Y.Y.Y.Y.Y.E.E.E.E.E.E.E.E.E.E.E.E.E.E.E.E.",
"E.E.E.E.E.E.E.E.E.E.E.E.E.E.E.E.E.E.E.E.P.T.T.P.R.R.R.R.E.E.E.E.T.P.T.P.R.R.P.T.Y.Y.Y.Y.Y.Y.Y.Y.E.E.E.E.E.E.E.E.E.E.E.E.E.E.E.E.",
"E.E.E.E.E.E.E.E.E.E.E.E.E.E.E.E.E.E.E.E.T.R.R.T.R.R.R.R.E.E.E.E.T.T.R.P.P.P.T.T.Y.Y.Y.Y.Y.Y.Y.Y.E.E.E.E.E.E.E.E.E.E.E.E.E.E.E.E.",
"E.E.E.E.E.E.E.E.E.E.E.E.E.E.E.E.E.E.E.E.T.R.P.P.R.R.R.T.E.E.E.E.P.T.R.R.T.R.R.R.Y.Y.Y.Y.Y.Y.Y.Y.E.E.E.E.E.E.E.E.E.E.E.E.E.E.E.E.",
"E.E.E.E.E.E.E.E.E.E.E.E.E.E.E.E.E.E.E.E.T.T.P.R.R.R.R.R.E.E.E.E.T.P.R.R.P.R.R.R.R.R.Y.Y.R.R.R.R.E.E.E.E.R.R.R.R.E.E.E.E.E.E.E.E.",
"E.E.E.E.E.E.E.E.E.E.E.E.E.E.E.E.E.E.E.E.T.T.T.P.R.R.R.R.T.T.E.E.P.P.R.T.T.T.P.P.R.R.Y.Y.R.R.R.R.E.E.E.E.R.R.R.R.E.E.E.E.E.E.E.E.",
"E.E.E.E.E.E.E.E.E.E.E.E.E.E.E.E.E.E.E.E.T.T.P.R.P.R.R.R.T.T.T.T.T.T.P.T.R.R.T.P.R.R.Y.Y.R.R.R.R.E.E.E.E.R.R.R.R.E.E.E.E.E.E.E.E.",
"E.E.E.E.E.E.E.E.E.E.E.E.E.E.E.E.E.E.E.E.T.T.R.R.R.P.R.Y.T.T.T.P.R.R.T.P.P.R.T.T.Y.Y.Y.Y.R.R.R.R.E.E.E.E.R.R.R.R.E.E.E.E.E.E.E.E."
};
