/* XPM */
static char *_028c9e6894f4af98caff567155e59ebQQup7EWf83k6sgn9[] = {
/* columns rows colors chars-per-pixel */
"64 64 124 2 ",
"   c #010101",
".  c #130505",
"X  c #1D0606",
"o  c #170907",
"O  c #180B07",
"+  c #050516",
"@  c #140817",
"#  c #180C19",
"$  c #280506",
"%  c #210D0D",
"&  c #2E0909",
"*  c #261D05",
"=  c #2C1F08",
"-  c #2F1C13",
";  c #341E16",
":  c #372D0C",
">  c #131F28",
",  c #142C21",
"<  c #1E2C22",
"1  c #15212C",
"2  c #162B28",
"3  c #1E3E2F",
"4  c #1D3635",
"5  c #1E3E30",
"6  c #2E2B21",
"7  c #342C2E",
"8  c #2D3521",
"9  c #21322A",
"0  c #3B3F24",
"q  c #2B3938",
"w  c #333338",
"e  c #443911",
"r  c #642626",
"t  c #662827",
"y  c #66282B",
"u  c #6D2929",
"i  c #732C2A",
"p  c #782E2B",
"a  c #6D332B",
"s  c #70322E",
"d  c #6D3632",
"f  c #673A33",
"g  c #693C35",
"h  c #6C373C",
"j  c #743B33",
"k  c #763E3E",
"l  c #7B3F3F",
"z  c #654338",
"x  c #694A3E",
"c  c #79443F",
"v  c #7F4D3F",
"b  c #3F3F47",
"n  c #373775",
"m  c #3B3776",
"M  c #383978",
"N  c #6B3841",
"B  c #443774",
"V  c #473E75",
"C  c #4A3D76",
"Z  c #493F78",
"A  c #374240",
"S  c #384240",
"D  c #734144",
"F  c #7C4442",
"G  c #774C47",
"H  c #7F4B43",
"J  c #76474E",
"K  c #7C474B",
"L  c #714E4B",
"P  c #7B4D4B",
"I  c #77574E",
"U  c #7D514A",
"Y  c #7B5353",
"T  c #46437C",
"R  c #48407A",
"E  c #BC3737",
"W  c #B9373B",
"Q  c #BA383B",
"!  c #C13938",
"~  c #814C43",
"^  c #845341",
"/  c #895A42",
"(  c #845149",
")  c #BF4247",
"_  c #BF4348",
"`  c #BF4B4E",
"'  c #BF4B53",
"]  c #A87742",
"[  c #AC7A45",
"{  c #C44D4E",
"}  c #C15359",
"|  c #F56647",
" . c #F66748",
".. c #F86848",
"X. c #F67159",
"o. c #B29337",
"O. c #B49339",
"+. c #BA9A3A",
"@. c #D38D6E",
"#. c #D5906F",
"$. c #D48E70",
"%. c #D99171",
"&. c #EFD055",
"*. c #F4D456",
"=. c #F8D858",
"-. c #3DB189",
";. c #41AD85",
":. c #6D9AB9",
">. c #6DC49D",
",. c #70C59E",
"<. c #6FC9A0",
"1. c #70C9A1",
"2. c #F4BC8D",
"3. c #9DDCBC",
"4. c #ADACCB",
"5. c #B1ACCB",
"6. c #B3B0CE",
"7. c #B2B2D1",
"8. c #A1E0C1",
"9. c #E2E0EF",
"0. c #E4E3F3",
"q. c #E4E4F4",
"w. c #E6E6F6",
"e. c #E9E4F4",
/* pixels */
"<.>.1.<.1.1.1.1.1.1.1.1.1.1.1.1.<.<.<.1.,.1.<.<.<.<.<.<.1.1.1.1.1.1.<.<.<.<.1.1.<.<.<.<.<.<.1.1.1.1.1.1.1.1.1.1.<.<.<.<.1.1.1.1.",
"<.<.<.<.1.1.1.1.1.1.1.1.1.1.1.1.<.<.<.1.,.1.<.<.<.<.<.<.1.1.1.1.<.<.<.<.<.<.1.1.<.<.<.<.<.<.1.1.1.1.1.1.1.1.1.1.<.<.<.1.1.1.1.1.",
"1.1.<.<.1.1.1.1.1.1.1.1.1.1.1.1.,.<.<.<.<.<.<.1.1.1.<.<.1.1.1.1.<.<.<.<.1.1.1.1.<.<.<.<.<.<.1.1.1.1.1.1.1.1.1.1.<.1.1.1.1.1.1.1.",
"<.>.<.<.1.1.1.1.1.1.1.1.1.1.1.1.<.<.<.<.<.<.>.1.1.1.1.<.1.1.1.1.<.<.<.<.1.1.1.1.<.<.<.<.<.<.1.1.1.1.1.1.1.1.1.1.<.1.1.1.1.1.1.1.",
"<.<.<.<.>.1.<.>.1.1.1.1.1.1.1.1.1.1.1.1.1.1.1.1.1.1.<.1.1.1.1.1.<.<.<.<.1.1.1.1.1.1.1.1.1.1.1.1.1.1.1.1.1.1.1.1.<.<.<.<.1.1.1.1.",
"1.>.<.1.<.1.<.<.1.1.1.1.1.1.1.1.1.1.1.1.1.1.1.1.<.1.<.<.1.1.1.1.<.<.<.<.1.1.1.1.1.1.<.<.1.1.1.1.1.1.1.1.1.1.1.1.<.<.<.<.1.1.1.1.",
"<.<.<.1.<.1.<.<.1.1.1.1.1.1.1.1.1.1.1.1.1.1.1.1.<.<.<.<.1.<.<.1.<.<.<.<.1.1.1.1.1.1.<.<.1.1.1.1.1.1.1.1.1.1.1.1.<.1.<.<.1.1.1.1.",
"<.<.<.>.<.>.<.<.1.1.1.1.1.1.1.1.1.1.1.1.1.1.1.1.<.<.<.<.1.<.<.<.<.<.<.<.1.1.1.1.<.<.<.<.1.1.1.1.1.1.1.1.1.1.1.1.1.1.<.<.1.1.1.1.",
"1.1.1.1.<.<.<.<.1.1.1.1.<.<.<.<.1.1.1.1.1.1.1.1.1.>.<.<.1.1.1.1.<.<.<.<.1.1.1.1.<.<.<.<.1.1.1.1.1.1.1.1.<.<.<.<.1.1.<.<.<.<.<.<.",
"1.1.1.1.<.<.<.<.<.<.>.<.<.<.<.<.1.1.1.1.1.1.1.1.1.<.<.<.1.1.1.1.<.<.<.<.1.1.1.1.<.<.<.<.1.1.1.1.1.1.1.1.<.<.<.<.1.1.<.<.<.<.<.<.",
"1.1.<.<.<.<.<.<.<.<.<.<.<.<.<.<.1.1.1.1.1.1.1.1.<.<.<.<.1.1.1.1.1.1.1.1.1.1.1.1.<.<.<.<.1.1.1.1.1.1.<.<.<.<.<.<.<.<.<.<.<.<.<.<.",
"1.1.<.<.<.<.<.<.>.1.<.<.<.<.<.<.1.1.1.1.1.1.1.1.>.<.<.<.1.1.1.1.1.1.1.1.1.1.1.1.<.<.<.<.1.1.1.1.1.1.<.<.<.<.<.<.<.<.<.<.<.<.<.<.",
"1.1.1.1.1.1.1.1.<.<.<.<.<.<.<.<.1.1.1.1.-.-.-.-.,.,.,.,.>.,.,.>.<.<.>.>.,.,.,.1.1.1.1.1.1.1.1.1.1.1.1.1.<.<.<.<.1.1.1.1.1.1.1.1.",
"1.1.1.1.1.1.1.1.1.<.<.<.<.<.<.<.1.1.1.1.-.-.;.z g g g g g f g g z z g g g g x ,.1.1.1.1.1.1.1.1.1.1.1.1.<.<.<.<.1.1.1.1.1.1.1.1.",
"1.1.1.1.1.1.1.1.1.1.<.<.<.<.<.<.1.1.1.1.-.-.;.d u i i i i i p p a s i i i u g >.1.<.<.1.1.1.1.1.1.1.1.1.<.<.<.<.1.1.1.1.1.1.1.1.",
"1.1.1.1.1.1.1.1.1.1.<.<.<.<.<.<.1.1.1.1.;.z d E Q | | | | | | ..| | | | | E E j L >.<.<.1.1.1.1.1.1.1.1.<.<.<.<.1.1.1.1.1.1.1.1.",
"1.1.1.1.1.1.1.1.-.-.-.-.<.<.<.<.1.1.1.1.;.f u ! ! ........................! ! i j ,.,.>.<.<.<.>.1.1.<.<.<.<.<.<.<.<.1.1.1.1.1.1.",
"1.1.1.1.1.1.1.1.-.-.-.-.<.<.<.<.1.1.1.1.;.f i | ..........................| | ! E g x ,.<.<.<.<.1.1.<.<.<.<.<.<.<.<.1.1.1.1.1.1.",
"1.1.1.1.1.1.1.1.-.-.-.-.<.<.<.<.1.1.1.,.;.d p | ..............................{ ` u f >.,.1.<.<.<.<.<.<.<.<.<.<.<.1.1.1.1.1.1.1.",
"1.1.1.1.1.1.1.1.-.-.-.-.<.<.<.<.1.1.,.x d E E | ............................X.e.9.D t z x ,.<.<.<.<.<.<.<.<.<.<.<.<.1.1.1.1.1.1.",
"1.1.1.1.1.1.1.1.1.1.1.1.-.-.-.-.1.1.,.g u E ! ..............................X.e.0.D y D L >.>.<.1.1.1.1.<.<.1.1.<.<.<.<.1.1.1.1.",
"1.1.1.1.1.1.1.1.1.1.1.1.-.-.-.-.1.,.,.g u E ! ! ! ........................! { w.0.D D 9.9.S , <.1.1.1.1.<.<.1.1.<.<.<.<.1.1.1.1.",
"1.1.1.1.1.1.1.1.1.1.1.,.-.-.-.-.1.1.,.g u E ! ! ! ......| | | | ......|  .! { w.0.D D w.0.w   <.1.1.1.1.<.<.1.1.<.<.<.<.1.1.1.1.",
"1.1.1.1.1.1.1.1.1.1.1.,.-.-.-.-.1.1.,.g u E ! ! ! ! ! ! ! ! ! ! ! ! ! ! ! E _ 6.5._ ` 0.0.w   <.1.1.1.1.<.<.1.1.<.<.<.<.1.1.1.1.",
"1.1.1.1.<.<.<.<.1.1.1.1.<.>.1.<.1.1.,.g t E E ! ! ! ! E ! ! ! ! ! ! ! ! E ! ) 5.5.' } w.0.w   <.1.1.1.1.<.<.<.<.<.<.<.<.<.<.<.<.",
"1.1.1.1.<.<.<.<.1.1.1.1.<.<.<.<.1.1.>.< X u i E ! ! ! ! E ! ! E ! ! ! ! ! ! ! ) ' 5.6.w.0.w   <.1.1.1.1.<.<.<.<.<.<.<.<.<.<.1.1.",
"1.1.1.1.<.<.<.<.1.1.1.1.<.<.<.<.1.1.>., . y u E ! ! E ! ! ! ! ! ! ! ! ! ! ) ) ) ' 4.7.9.9.A , >.1.1.1.1.<.<.<.<.<.<.<.<.1.1.1.1.",
"1.1.1.1.<.<.<.<.1.1.1.1.<.1.>.<.1.1.>., . k k i u u u E ! ! E ! ! ! ! E ) 5.5.5.4.7.4.b A >.>.>.1.1.1.1.<.<.<.<.<.<.<.<.1.1.1.1.",
"1.1.1.1.1.1.1.1.<.<.<.<.1.1.1.1.1.1.>., o D c i r u u ! E ! E ! E E E E ) 5.5.4.4.4.4.q 5 <.<.<.<.<.<.<.<.<.<.<.1.1.1.1.1.1.1.<.",
"1.1.1.1.1.1.1.1.<.<.<.<.1.1.1.1.1.1.<., o k N k k k l i u u u u i u u u u h h T T J Y >.>.<.<.<.<.<.<.<.<.<.<.<.1.1.1.1.1.1.<.<.",
"1.1.1.1.1.1.1.1.<.<.<.<.1.1.1.1.1.1.>.5 9 j k k N l F j s u u s i d a t y u d V R c L >.<.<.<.<.<.<.<.<.1.<.1.1.1.1.1.1.<.<.<.<.",
"1.1.1.1.1.1.1.1.<.<.<.<.1.1.1.1.1.1.1.>.>.< % k ~ @.%.2.2.] [ @.@.@.@.; ; @.@.$.@.H L >.<.<.<.<.<.<.<.<.1.1.1.1.1.1.1.1.1.<.<.<.",
"1.1.1.1.1.1.1.1.<.<.<.<.1.1.1.1.<.<.<.<.>.5 < j ~ %.%.2.2.[ [ @.%.%.@.; ; %.%.$.@.I I ,.1.1.1.1.<.<.<.<.1.1.1.1.<.<.>.1.1.<.>.1.",
"1.1.1.1.1.1.1.1.<.<.<.<.1.1.1.1.<.>.<.<.<.>.>.< ; $.%.2.2.%.%.%.%.2.2.~ ~ 2.2.( I <.>.,.1.1.1.1.,.1.<.<.1.1.1.1.<.<.<.<.<.<.<.<.",
"1.1.1.1.1.1.1.1.<.<.<.<.1.1.1.1.<.<.<.<.<.<.>.8 e X.$.2.2.%.%.%.%.2.2.( ( 2.2.( I <.1.<.1.1.1.1.<.<.,.<.1.1.1.1.<.1.<.<.1.1.<.<.",
"1.1.1.1.1.1.<.<.<.<.<.<.1.1.1.1.<.<.<.<.>.5 8 o.O.L ~ ~ ( %.%.@.%.%.%.%.@.( ( >.<.<.<.<.1.1.1.1.,.<.<.<.1.1.1.1.<.>.<.<.<.>.<.<.",
"1.<.<.<.<.<.<.<.<.<.<.<.1.1.1.1.<.1.1.>.>.0 e +.O.U D D F @.@.@.%.%.@.@.@.F G >.<.<.<.<.8.8.8.8.1.1.1.1.1.1.1.1.<.<.<.<.1.1.1.1.",
"1.<.<.<.<.<.<.<.<.<.<.<.1.1.1.1.1.1.>.3 0 &.*.*.&.+.o.a y ; - - ; N ~ ~ F y g ,.1.1.<.<.8.8.8.8.1.1.1.1.1.1.1.1.<.<.<.<.1.1.1.1.",
"<.<.<.<.<.<.<.<.<.<.<.<.1.1.1.1.<.<.>., : &.*.=.=.+.+.a r @ + + # c F k N u g <.1.1.1.1.8.8.8.8.1.1.1.1.1.1.1.1.<.<.<.<.1.1.1.1.",
"<.<.<.<.<.<.<.<.<.<.<.<.1.1.1.1.<.<.>., O v / *.=.+.o.= @ n M n m # & E ! u g ,.1.1.1.1.8.8.8.8.1.1.1.1.1.1.1.1.<.<.<.<.1.1.1.1.",
"<.<.<.<.1.1.1.1.<.<.<.<.<.<.<.<.<.<.>., O x / &.*.+.o.* + n M n n @ & E E u g >.>.1.<.<.8.8.8.8.1.1.1.1.1.1.1.1.8.8.3.8.<.<.<.<.",
"<.<.<.<.1.1.1.1.<.<.<.<.<.<.<.1.<.<.>., * o.O.^ v a a . + n M M m y u E E $ < >.,.1.<.<.8.8.8.8.1.1.1.1.1.1.1.1.8.8.8.8.<.<.<.<.",
"<.<.<.<.1.1.1.1.<.<.<.<.<.1.1.1.<.1.<.3 8 o.O.v F t r . + V V Z C r u E E 6 5 >.<.<.<.<.8.8.8.8.1.1.1.1.1.1.1.1.8.8.8.8.1.<.<.<.",
"<.<.<.<.1.1.1.1.<.<.<.<.<.1.1.1.1.1.<.>.>.8 : o.o.* .   - @.$.$.@.; . $ 6 >.>.>.<.<.<.<.8.8.8.8.1.1.1.1.1.1.1.1.8.8.8.8.1.<.<.<.",
"1.1.1.1.1.1.1.1.<.<.>.<.1.1.1.1.<.1.<.<.>.3 8 o.o.*   > 7 @.#.@.@.7 >   4 3.8.8.<.<.1.1.<.<.1.1.1.1.1.1.8.8.8.8.<.<.<.<.<.<.<.<.",
"1.1.1.1.1.1.1.1.<.<.1.1.1.1.1.1.<.1.>.<.>.>.>.8 *   > :.:.P F F K :.:.1 9 3.8.8.<.<.1.1.1.1.1.1.1.1.1.1.8.8.8.8.<.<.<.<.<.<.<.<.",
"1.1.1.1.1.1.1.1.1.1.<.<.1.1.1.1.<.<.<.<.<.1.>.3 , , 4 :.:.K D c K :.:.1 9 3.8.8.<.1.1.1.1.1.1.1.1.1.1.1.8.8.8.8.<.<.<.<.<.<.<.<.",
"1.1.1.1.1.1.1.1.>.<.<.<.1.1.1.1.1.>.<.<.<.>.>.>.<.>.>.4 1 m V Q W C M + 9 3.3.8.<.<.1.1.1.1.1.1.1.1.1.1.8.8.8.8.<.<.<.<.<.<.<.<.",
"<.<.<.<.1.1.1.1.1.1.1.1.1.1.1.1.<.<.<.<.<.<.1.1.1.1.<.5 2 n M Q Q B n , 5 1.<.<.<.<.<.<.1.1.1.1.<.<.<.<.1.1.1.1.<.<.1.<.1.1.1.1.",
"<.<.<.<.1.1.1.1.1.1.1.1.1.1.<.1.<.<.<.<.<.<.<.<.1.1.<.<.>.2 + X $ + , >.1.1.<.<.<.<.<.<.1.1.1.1.<.<.<.<.1.1.1.1.<.<.>.<.1.1.1.1.",
"<.<.<.<.1.1.1.1.1.1.1.1.<.<.<.<.<.<.<.<.<.<.<.<.<.<.<.<.<.5 , 2 , , 3 >.1.1.<.<.<.<.<.<.1.1.1.1.<.<.<.<.1.1.1.1.<.1.<.<.1.1.1.1.",
"<.<.<.<.1.1.1.1.1.1.1.1.<.<.<.<.<.<.<.<.<.<.<.<.<.<.<.<.<.<.<.<.>.>.>.1.1.1.<.<.<.<.<.<.1.1.1.1.<.>.<.<.1.1.1.1.<.>.<.<.1.1.1.1.",
"<.<.1.1.1.1.1.1.1.1.1.1.<.<.<.<.<.<.<.<.1.1.<.<.<.1.<.<.1.1.1.1.<.>.1.<.<.<.<.<.<.<.<.1.1.1.1.1.<.1.1.1.1.1.1.1.1.1.1.1.1.1.1.1.",
"<.<.1.1.1.1.1.1.1.1.1.1.<.<.<.<.<.<.<.<.1.1.<.<.1.1.<.<.1.1.1.1.<.<.<.<.<.<.<.<.<.<.1.1.1.1.1.1.1.1.1.1.1.1.1.1.1.1.1.1.1.1.1.1.",
"<.1.1.1.1.1.1.1.1.1.<.1.<.<.<.<.<.<.<.<.1.1.<.<.1.<.<.<.1.1.1.1.<.<.<.<.<.<.<.<.1.1.1.1.1.1.<.<.1.1.1.1.1.1.1.1.1.1.1.1.1.1.1.1.",
"<.<.1.1.1.1.1.1.1.1.<.<.<.<.<.<.<.<.<.<.1.1.<.<.1.<.<.<.1.1.1.1.<.<.<.<.<.<.<.<.1.1.1.1.1.1.1.<.1.1.1.1.1.1.1.1.1.1.1.1.1.1.1.1.",
"1.1.1.1.1.1.1.1.1.1.1.1.1.1.1.1.1.1.1.1.<.<.<.<.1.<.<.<.1.1.1.1.<.<.<.<.<.>.1.1.<.<.<.<.<.<.<.<.1.1.1.1.1.1.1.1.1.1.1.1.1.1.1.1.",
"1.1.1.1.1.1.1.1.1.1.1.1.1.1.1.1.1.1.1.1.<.<.<.<.1.<.<.<.1.1.1.1.<.<.1.>.<.<.<.<.<.<.<.<.<.<.<.<.1.1.1.1.1.1.1.1.1.1.1.1.1.1.1.1.",
"1.1.1.1.1.1.1.1.1.1.1.1.1.1.1.1.1.1.1.1.<.<.<.<.1.1.<.<.1.1.1.1.<.<.<.<.<.<.<.<.<.<.<.<.<.<.<.<.1.1.1.1.1.1.1.1.1.1.1.1.1.1.1.1.",
"1.1.1.1.1.1.1.1.1.1.1.1.1.1.1.1.1.1.1.1.<.<.<.<.1.1.<.<.1.1.1.1.<.<.<.<.<.1.1.>.<.<.<.<.<.<.<.<.1.1.1.1.1.1.1.1.1.1.1.1.1.1.1.1.",
"1.1.1.1.1.1.1.1.1.1.1.1.1.1.1.1.1.1.1.1.<.<.<.<.<.<.<.<.1.1.1.1.<.<.>.<.>.<.<.<.<.<.<.<.<.<.<.<.1.1.1.1.1.1.1.1.1.1.1.1.1.1.1.1.",
"1.1.1.1.1.1.1.1.1.1.1.1.1.1.1.1.1.1.1.1.<.<.<.<.<.<.<.<.1.1.1.1.<.1.1.<.1.<.<.<.<.<.<.<.<.<.<.<.1.1.1.1.1.1.1.1.1.1.1.1.1.1.1.1.",
"1.1.1.1.1.1.1.1.1.1.1.1.1.1.1.1.1.1.<.<.<.<.<.<.<.>.<.<.1.1.1.1.>.1.<.<.>.<.>.1.<.<.<.<.<.1.<.<.1.1.1.1.<.<.<.<.1.1.1.1.1.1.1.1.",
"1.1.1.1.1.1.1.1.1.1.1.1.1.1.1.1.1.<.<.<.<.<.<.<.<.<.<.<.1.1.1.1.<.1.<.<.1.<.<.1.<.<.<.<.1.1.<.<.1.1.1.1.<.<.<.<.1.1.1.1.1.1.1.1."
};
