/* XPM */
static char *_ca8ef0ae3994760df41c63287e8777epbgzLAsUIaJffEmn[] = {
/* columns rows colors chars-per-pixel */
"64 64 207 2 ",
"   c black",
".  c #010203",
"X  c #170808",
"o  c #050515",
"O  c #050516",
"+  c #060717",
"@  c #090716",
"#  c #160A19",
"$  c #190C19",
"%  c #1A0D19",
"&  c #290505",
"*  c #290809",
"=  c #2E0808",
"-  c #3A0B0B",
";  c #231608",
":  c #38140E",
">  c #36180C",
",  c #2A0B18",
"<  c #2E1B13",
"1  c #2F1C13",
"2  c #2E1B14",
"3  c #331D15",
"4  c #341E17",
"5  c #351F17",
"6  c #3E1E16",
"7  c #38141A",
"8  c #301E1F",
"9  c #3D2A1F",
"0  c #3D2B1F",
"q  c #0B0B21",
"w  c #131F28",
"e  c #142C21",
"r  c #1D2D22",
"t  c #132028",
"y  c #16222F",
"u  c #152B28",
"i  c #172D2A",
"p  c #1E3E2F",
"a  c #172230",
"s  c #1E2F3A",
"d  c #1D3635",
"f  c #1E3E30",
"g  c #25242C",
"h  c #25252D",
"j  c #2E222A",
"k  c #382A26",
"l  c #283122",
"z  c #333427",
"x  c #3B3B2C",
"c  c #343237",
"v  c #333338",
"b  c #6C2828",
"n  c #6E2929",
"m  c #6A2E29",
"M  c #732D2A",
"N  c #712F2A",
"B  c #782E2B",
"V  c #6D3731",
"C  c #673831",
"Z  c #663C34",
"A  c #6E3B35",
"S  c #683C35",
"D  c #6A363C",
"F  c #71373D",
"G  c #743E3D",
"H  c #7A3E3F",
"J  c #654338",
"K  c #69493E",
"L  c #694A3E",
"P  c #363673",
"I  c #373776",
"U  c #383776",
"Y  c #3C3774",
"T  c #383878",
"R  c #393878",
"E  c #3A3F7A",
"W  c #443774",
"Q  c #453774",
"!  c #453876",
"~  c #473E75",
"^  c #483F78",
"/  c #3B407A",
"(  c #3B4678",
")  c #3B407C",
"_  c #7C4441",
"`  c #7E4643",
"'  c #7C4546",
"]  c #764B46",
"[  c #7F4A45",
"{  c #764C4A",
"}  c #77574E",
"|  c #7D514A",
" . c #7A514C",
".. c #7C5D55",
"X. c #42427B",
"o. c #47407A",
"O. c #4E4579",
"+. c #5A4A79",
"@. c #BA3636",
"#. c #BB3737",
"$. c #BC3737",
"%. c #BD3737",
"&. c #B9373C",
"*. c #BD3838",
"=. c #BA383C",
"-. c #BD383C",
";. c #C03838",
":. c #C03A38",
">. c #C33B39",
",. c #C53E3A",
"<. c #A3743E",
"1. c #814542",
"2. c #834B45",
"3. c #814B46",
"4. c #865048",
"5. c #80544D",
"6. c #825850",
"7. c #BF4247",
"8. c #A77741",
"9. c #A87742",
"0. c #C24649",
"q. c #C24C4E",
"w. c #C54D4E",
"e. c #C15359",
"r. c #F26546",
"t. c #F46547",
"y. c #F66747",
"u. c #F66748",
"i. c #F86848",
"p. c #F36F58",
"a. c #F57059",
"s. c #F77159",
"d. c #D08B6C",
"f. c #D18B6C",
"g. c #D08B6E",
"h. c #D18B6F",
"j. c #D28C6C",
"k. c #D48D6E",
"l. c #D58E6E",
"z. c #D08B71",
"x. c #D18C71",
"c. c #D48E70",
"v. c #D69070",
"b. c #D89070",
"n. c #D99271",
"m. c #D99272",
"M. c #3F4880",
"N. c #4C4C81",
"B. c #575080",
"V. c #535385",
"C. c #3FAE86",
"Z. c #3FAE87",
"A. c #3DB188",
"S. c #3DB189",
"D. c #42AB83",
"F. c #42AB84",
"G. c #40AE86",
"H. c #6C9AB9",
"J. c #6C9ABA",
"K. c #6E9DBC",
"L. c #6E9DBE",
"P. c #6BC19A",
"I. c #6CC19B",
"U. c #6CC29B",
"Y. c #6DC59D",
"T. c #6FC49D",
"R. c #6FC69D",
"E. c #6DC59E",
"W. c #6FC69F",
"Q. c #70C29B",
"!. c #70C69E",
"~. c #6FC8A0",
"^. c #6FC9A0",
"/. c #6FC9A1",
"(. c #70C9A1",
"). c #EFB98C",
"_. c #F0B98B",
"`. c #F2BB8C",
"'. c #F3BB8D",
"]. c #F3BB8E",
"[. c #F4BD8F",
"{. c #F6BD8E",
"}. c #F7BE8F",
"|. c #9DD9BA",
" X c #A0DDBE",
".X c #F8C090",
"XX c #ABAACA",
"oX c #ADAAC9",
"OX c #AFAAC9",
"+X c #ADADCC",
"@X c #B1AAC9",
"#X c #B3B0CE",
"$X c #B3B3D2",
"%X c #A0E0C0",
"&X c #A1E0C1",
"*X c #A1E1C1",
"=X c #E4E0EF",
"-X c #E5E0EF",
";X c #E7E0EF",
":X c #E0E0F1",
">X c #E3E0F0",
",X c #E7E2F2",
"<X c #E4E4F3",
"1X c #E4E4F4",
"2X c #E7E4F4",
"3X c #E6E6F7",
"4X c #E9E4F4",
/* pixels */
"~.~.~.~.(.(.(.(.(.(.(.(.(.(.(.(.~.~.~.~.~.~.~.~.~.~.~.~.(.(.(.(././.^.^.(.(.(.(.~.~.~.~.(.(.(.(.(.(.(.(.(.(.(.(././././.(.(.(.(.",
"~.~.~.~.(.(.(.(.(.(.(.(.(.(.(.(.~.~.~.~.~.~.~.~.~.~./.~.(.(.(.(././.^.^.(.(.(.(.~.~.~.~.(.(.(.(.(.(.(.(.(.(.(.(./././.~.(.(.(.(.",
"~.~.~.~.(.(.(.(.(.(.(.(.(.(.(.(.~.~.~.~.~.~.~.~././././.(.(.(.(././.W.^.(.(.(.(.~.~.~.~.(.(.(.(.(.(.(.(.(.(.(.(.~.~.~.~.(.(.(.(.",
"~.~.~.~.(.(.(.(.(.(.(.(.(.(.(.(.~.~.~.~.~.~.~.~././././.(.(.(.(./.W./.W.(.(.(.(.~.~.~.~.(.(.(.(.(.(.(.(.(.(.(.(.~.~.~.~.(.(.(.(.",
"~.~.~.~.~.~.~.~.(.(.(.(.(.(.(.(.(.(.(.(.(.(.(.(././././././././.~././.^.(.(.(.(././././.(.(.(.(.(.(.(.(.(.(.(.(.^.^.^.^.(.(.(.(.",
"~.~.~.~.~.~.~.~.(.(.(.(.(.(.(.(.(.(.(.(.(.(.(.(./././././././././././.^.(.(.(.(././././.(.(.(.(.(.(.(.(.(.(.(.(./.^.^.W.(.(.(.(.",
"~.~.~.~.~.~.~.~.(.(.(.(.(.(.(.(.(.(.(.(.(.(.(.(././././././././.W./.^.^.(.(.(.(././.~.~.(.(.(.(.(.(.(.(.(.(.(.(././.W./.(.(.(.(.",
"~.~.~.~.~.~.~.~.(.(.(.(.(.(.(.(.(.(.(.(.(.(.(.(./././././././././.W.^.^.(.(.(.(.~.~.~.~.(.(.(.(.(.(.(.(.(.(.(.(./././.W.(.(.(.(.",
"(.(.(.(.~.~.~.~.~.~.~.~.~.~.~.~.(.(.(.(.(.(.(.(.~.~.~.~.(.(.(.(.(.(.(.(.(.(.(.(.(.~.~.~.(.(.(.(.(.(.(.(./.W.W./.^.^.^.^././././.",
"(.(.(.(.~.~.~.~.~.~.~.~.~.~.~.~.(.(.(.(.(.(.(.(.~.~.~.~.(.(.(.(.(.(.(.(.(.(.(.(.!.~.~.~.(.(.(.(.(.(.(.(././.W./.^.^.^.^././././.",
"(.(.(.(.~.~.~.~.~.~.~.~././.~.~.(.(.(.(.(.(.(.(.~.~.~.~.(.(.(.(.(.(.(.(.(.(.(.(././././.(.(.(.(.(.(.(.(.W.W./.W.^.^.^.^././././.",
"(.(.(.(.~.~.~.~.~.~.~.~././././.(.(.(.(.(.(.(.(.~.~.(.!.(.(.(.(.(.(.(.(.(.(.(.(././././.(.(.(.(.(.(.(.(.W././.W.^.^.^.^././././.",
"(.(.(.(.(.(.(.(././././.~.~.~.~.(.(.(.(.S.S.S.S.!.!.!.!.R.!.!.!.!.!.!.!.!.!.!.!.(.(.(.(.(.(.(.(.(.(.(.(.~./.W./.(.(.(.(.(.(.(.(.",
"(.(.(.(.(.(.(.(././././.~.~.~.~.(.(.(.(.S.S.S.Z.K S S S S S S S S J S S S S S K (.(.(.(.(.(.(.(.(.(.(.(./././.W.(.(.(.(.(.(.(.(.",
"(.(.(.(.(.(.(.(././././.~.~.~.~.(.(.(.(.S.S.G.F.A n N M M M M M N N N M M M b A !.!.(.(.(.(.(.(.(.(.(.(././././.(.(.(.(.(.(.(.(.",
"(.(.(.(.(.(.(.(././././.~.~.~.~.(.(.(.(.S.Z.J V @.:.t.t.t.y.t.y.i.y.y.t.t.t.%.%.A K !.(.(.(.(.(.(.(.(.(././././.(.(.(.(.(.(.(.(.",
"(.(.(.(.(.(.(.(.S.S.S.S.W././.W.(.(.(.(.A.G.Z N *.>.u.i.i.i.i.i.i.i.i.i.i.i.>.*.b S R.!./.~.~.~./.^.^.^./.~./.W.(.(.(.(.(.(.(.(.",
"(.(.(.(.(.(.(.(.S.S.S.S././.W./.(.(.(.(.A.G.C N y.y.i.i.i.i.i.i.i.i.i.i.i.i.i.t.N S !.!./.~.~.~.W.^.^.^././.W./.(.(.(.(.(.(.(.(.",
"(.(.(.(.(.(.(.(.S.S.A.A./.W./.W.(.(.(.(.A.D.V B y.i.i.i.i.i.i.i.i.i.i.i.i.i.i.t.B A P.R././.~.~././.^.^././././.(.(.(.(.(.(.(.(.",
"(.(.(.(.(.(.(.(.S.A.A.A././.W./.(.(.(.!.J V *.:.y.i.i.i.i.i.i.i.i.i.i.i.i.i.i.i.>.$.J K E./.~.~./././.^./././.^.(.(.(.(.(.(.(.(.",
"(.(.(.(.(.(.(.(.(.(.(.(.A.A.A.A.(.(.~.T.Z b %.>.u.u.i.i.i.i.i.i.i.i.i.i.i.i.t.u.>.;.n S ~.~.~.~.(.(.(.(././././.W./././.(.(.(.(.",
"(.(.(.(.(.(.(.(.(.(.(.(.A.A.A.A.(.(.(.T.r = %.:.>.>.y.i.i.i.i.i.i.i.i.i.i.i.>.>.$.$.= r ~.~.~.~.(.(.(.(./././././.W.W.W.(.(.(.(.",
"(.(.(.(.(.(.(.(.(.(.(.(.A.A.S.A.(.(.(.R.e & *.%.;.>.y.i.y.i.s.s.s.s.y.y.y.t.>.:.%.%.& e ~.~.~.~.(.(.(.(./././././.W././.(.(.(.(.",
"(.(.(.(.(.(.(.(.(.(.(.(.A.A.S.S.(.(.R.R.e & %.:.;.;.:.>.:.q.;X2X4X;Xw.:.>.>.:.:.*.@.& e ~./.~.~.(.(.(.(././././.^.W.W./.(.(.(.(.",
"(.(.(.(.~.~.~./.(.(.(.(.~.~.~.~.(.~.~.T.l > @.$.0.7.$.:.q.e.>X2X4X;Xe.7.*.*.0.7.%.@.> l P.R.~.~.(.(.(.(./.~././.W.^./.W.(.(.(.(.",
"(.(.(.(.~.~.~.~.(.(.(.(.~.~.~.~.(.R.p l <.<.N F OX@X0.0.@X@Xe.q.q.e.@X@X0.7.@XOXF N <.<.l p T.~.(.(.(.(.~././././.^././.(.(.(.(.",
"(.(.(.(.~.~././.(.(.(.(.~.~.~.~.~.T.e ; 8.8.m D XXOXe.e.$X$X7.q.q.e.#X#Xe.7.OXXXD b 9.<.; e P.R.(.(.(.(./.~./././.W.^.^.(.(.(.(.",
"(.(.(.(././././.(.(.(.(.~.~.~.~.~.T.e < f.f.4 # X.V.>X-X3X3X3X1X2X2X2X3X3X=XV.X.# 4 j.d.3 e R.R.(.(.(.(.~.~./.^./.W.W.^.(.(.(.(.",
"(.(.(.(.(.(.(.(./.~.~.~.(.(.(.(.~.~.f z g.g.4 $ ~ B.>X2X2X1X1X1X<X<X2X2X3X:XB.~ , 9 d.d.z p W./.~./.W./././././.(.(.(.(.W.^.^.^.",
"(.(.(.(.(.(.(.(.~.~.~.~.(.(.(.(.~.~.T.T.z 4 G _ z.z.B.N.N.N.N.N.N.N.N.N.V.V.z.z.1.L 1 z W.W.W./.~././.W././././.(.(.(.(.^.^.^.^.",
"(.(.(.(.(.(.(.(.~.~.~.~.(.(.(.(.(.(.(.~.e X _ 2.k.c.+.O.I I O.O.O.O.I U O.+.z.l.[ L X e R.W.^.^.^.^.W.^././././.(.(.(.(././.^.^.",
"(.(.(.(.(.(.(.(.~.~.~.~.(.(.(.(.(.(.(.R.e 2 g.j.c.m.]._.k k ).[.].).k k ).].m.m.l.d.1 e Y.W.W.^.^.^.^.^././././.(.(.(.(./././.^.",
"(.(.(.(.(.(.(.(././././.(.(.(.(.~.~.~.T.f z f.c.b.m.}._.0 0 [..X.X.Xk 0 ]..Xn.l.c.f.z f T.~.(.(.~.~.~.~.(.(.(.(.~.~.~.~.~.~.~.~.",
"(.(.(.(.(.(.(.(././././.(.(.(.(.~.~.~.~.T.T.2.2.b.b.m.b.K 2.[.}..X].[ _ l.m.n.l.2.| T.T.(.~.(.(.~.~.~.~.(.(.(.(.~.~.~.~.~.~.~.~.",
"(.(.(.(.(.(.(.(././././.(.(.(.(.~.~.~.~.T.T.{ ' d.k.k.f.2.4.[.[..X].4.3.g.j.l.j.` { P.R.(.(.(.(.~.~.~.~.(.(.(.(.~.~.~.~.~.~.~.~.",
"(.(.(.(.(.(.(.(././././.(.(.(.(.~.~.~.T.f i Y U 8 4 1.2.j.m.m.m.l.n.l.d.2._ 3 0 Y U i f T.(.(.(.~.~.~.~.(.(.(.(.~.~.~.~.~.~.~.~.",
"W.^.^.^.W.^.^./././././.(.(.(.(.~.~.~.E.x k R U @ % H 1.x.k.j.j.k.f.f.d._ H $ q I U k x |. X&X&X(.(.(.(.(.(.(.(.~.~.~.~.(.(.(.(.",
"^.^.^.^.^.W././././.W./.(.(.(.(.~.~.} } _._.O.R U W &.%.6 2 1 3 < < 3 6 @.=.! I R O.)._.6...%X&X(.(.(.(.(.(.(.(.~.~.~.~.(.(.(.(.",
"/./.^.^./.W.W.W./.W./.W.(.(.(.(.!.!. .2.].].+.^ R ! -.%.- * g g g g * - %.-.W R o.+._.[.3. . X&X(.(.(.(.(.(.(.(.~.~.~.~.(.(.(.(.",
"/./.^.^./.W././.W./.W./.(.(.(.(.(.R.2.K m.m.c.z.^ W -.;.#.0.+X+X+XOX0.%.*.-.! ^ x.c.m.v.`  . X&X(.(.(.(.(.(.(.(.~.~.~.~.(.(.(.(.",
"/./.W./.(.(.(.(.~.~.~./././././.(.!.} | f.k.k.j.! ! -.:.:.0.@X$X$X@X0.,.:.-.! ~ z.k.l.j.| ..&X&X(.(.(.(.(.(.(.(.&X*X%X%XR.~.~.~.",
"/././.W.(.(.(.(.~.~.~./././././.(.(.R.(.| _ 0 3 @ , *.:.u.s.>X2X2X2Xs.u.*.*., @ 2 4 ` | |.&X&X&X(.(.(.(.(.(.(.(.*X*X*X*XR.~./.~.",
"/./././.(.(.(.(.~.~.~.~.W./././.~.~.~.~.} { # O w j =.-.r.p.;X<X1X>Xa.r.-.=.g w + $ ] } &X&X&X*X(.(.(.(.(.(.(.(.*X*X&X*X(./././.",
"/././.~.(.(.(.(.~.~.~.~././././.~.~.~.~.R.P.( I K.K.o.W 7 : v v v v > 7 W ~ J.J.E ( P.R.&X&X&X*X(.(.(.(.(.(.(.(.*X*X*X*X(./././.",
"(.(.(.(.(.(.(.(.~.~.~.~.(.(.(./.~.~.~.~.~.R.( E J.J.( E a t .       w y E N.J.J.E ( ~.~.~.~././././././.&X&X&X&X/./././.~.~.~.~.",
"(.(.(.(.(.(.(.(.~.~.~.~.(.(.(.~.~.~.~.~.~.T.i + t s K.K.K.J.t     w J.K.J.J.s w @ i ~.(.~.~././././././.&X&X&X&X/./././.~.~.~.~.",
"(.(.(.(.(.(.(.(.~.~././.(.(.~.~.~.~.~.~.~.R.e   O a J.K.K.J.d e e d J.K.K.J.a O   e R.~.~./././././././.*X*X*X*X/./././.~.~.~.~.",
"(.(.(.(.(.(.(.(.~.~././.(.(.~.~.~.~.~.~.~.T.e O I I ) / a d U.~.~.T.d a E E I I O e ~.~.~.~././././././.*X*X*X*X/./.~.~.~.~.~.~.",
"W././.W.(.(.(.(.(.(.(.(./.^.^.^.~./.W././.W.p u P P P P i p T.~.W.Y.p u P P I P i p W.^.(.(.(.(.~.~.~.~.(.(.(.(.~.~.~.~.(.(.(.(.",
"/.W././.(.(.(.(.(.(.(.(.W.^.^.^./././.W././.W.W.u + + u R.W.R.~.W.Y.Y.Y.i + + i W.W.W.^.(.(.(.(.~.~.~.~.(.(.(.(.~.~.~.~.(.(.(.(.",
"W./.W.W.(.(.(.(.(.(.(.(././.^.^./././././././.W.f e e p ~.~.(.(.W./.W.W.p e e p Y.R.^.^.(.(.(.(.~.~.~.~.(.(.(.(.~.~.~.~.(.(.(.(.",
"W./.W./.(.(.(.(.(.(.(.(./././.^././././././././.Y.Y.Y.Y.(.(.(.(./.W.W.W.W.W.W.W.^.W.^.^.(.(.(.(.~.~.~.~.(.(.(.(.~.~.~.~.(.(.(.(.",
"(.(.(.(.(.(.(.(.(.(.(.(././././././././.^.^.^.^././././.~./.(.(.W.W.^.^././.W.W.^.^.^.^.(.(.(.(.(.(.(.(.(.(.(.(.(.(.(.(.(.(.(.(.",
"(.(.(.(.(.(.(.(.(.(.(.(././././././././.^.^.^.^././././././.(.(.W./.^.^.W./././.^.^.^.^.(.(.(.(.(.(.(.(.(.(.(.(.(.(.(.(.(.(.(.(.",
"(.(.(.(.(.(.(.(.(.(.(.(.W./././././././././.^.^./././././././.(.^.^.^.^./.W.^.^.(.(.^.^.(.(.(.(.(.(.(.(.(.(.(.(.(.(.(.(.(.(.(.(.",
"(.(.(.(.(.(.(.(.(.(.(.(./.W./.~././././././.^.W./././././././.(.^.^.^.^./././.^.(.(.(.(.(.(.(.(.(.(.(.(.(.(.(.(.(.(.(.(.(.(.(.(.",
"(.(.(.(.(.(.(.(.(.(.(.(.(.(.(.(.(.(.(.(.^.W././././././.(.(.(.(.W.^.^././.W.^.W./.W.W.^.^./.W.^.(.(.(.(.(.(.(.(.(.(.(.(.(.(.(.(.",
"(.(.(.(.(.(.(.(.(.(.(.(.(.(.(.(.(.(.(.(.^.^./.^././././.(.(.(.(.W.^.^.W./.W.^.^././.^.W././.W./.(.(.(.(.(.(.(.(.(.(.(.(.(.(.(.(.",
"(.(.(.(.(.(.(.(.(.(.(.(.(.(.(.(.(.(.(.(./.W.W.^././././.(.(.(.(.^././.^.W.^././.^.^.W./.W.W.^./.(.(.(.(.(.(.(.(.(.(.(.(.(.(.(.(.",
"(.(.(.(.(.(.(.(.(.(.(.(.(.(.(.(.(.(.(.(././.^.W././.^.^.(.(.(.(.^./.W.W.^.W.W./.W.^.W./.W.^.^./.(.(.(.(.(.(.(.(.(.(.(.(.(.(.(.(.",
"(.(.(.(.(.(.(.(.(.(.(.(.(.(.(.(.(.(.(.(.^.^.W./.^./././.(.(.(.(.^.W.W./.^./.W.W.W././.W././././.(.(.(.(././././.(.(.(.(.(.(.(.(.",
"(.(.(.(.(.(.(.(.(.(.(.(.(.(.(.(.(.(.(.(.^.^.^.W././././.(.^.(.(.^.^.W./././.W.^./.W.W./././././.(.(.(.(././././.(.(.(.(.(.(.(.(.",
"(.(.(.(.(.(.(.(.(.(.(.(.(.(.(.(.(.(.(.(.^.^.W././.W././.^.^.^.^././.^./.W.W.^.^.W./././././././.(.(.(.(././././.(.(.(.(.(.(.(.(.",
"(.(.(.(.(.(.(.(.(.(.(.(.(.(.(.(.(.(.(.(.^.^././.W./.~./.^.^.^.W.W./.^.W.^./././././././././././.(.(.(.(././././.(.(.(.(.(.(.(.(."
};
