/* XPM */
static char *_eb2a577ede14345a18bcad00c3f4ebbeqQp3x7oODnfhzAW[] = {
/* columns rows colors chars-per-pixel */
"64 64 129 2 ",
"   c #010101",
".  c #130505",
"X  c #1D0606",
"o  c #170907",
"O  c #180B07",
"+  c #050516",
"@  c #080615",
"#  c #140817",
"$  c #180C19",
"%  c #280506",
"&  c #210D0D",
"*  c #2E0909",
"=  c #261D05",
"-  c #2C1F08",
";  c #2F1C13",
":  c #341E16",
">  c #372D0C",
",  c #3D2B16",
"<  c #131F28",
"1  c #142C21",
"2  c #1E2C22",
"3  c #15212C",
"4  c #152B28",
"5  c #1E3E2F",
"6  c #1E3E30",
"7  c #2E2B21",
"8  c #342C2E",
"9  c #2D3521",
"0  c #21322A",
"q  c #3B3F24",
"w  c #333A29",
"e  c #273B3A",
"r  c #2B3938",
"t  c #333338",
"y  c #443911",
"u  c #642626",
"i  c #662827",
"p  c #66282B",
"a  c #6D2929",
"s  c #732C2A",
"d  c #782E2B",
"f  c #6D332B",
"g  c #70322E",
"h  c #673730",
"j  c #6D3632",
"k  c #663C34",
"l  c #693C35",
"z  c #6C373C",
"x  c #743B33",
"c  c #763E3E",
"v  c #7B3F3F",
"b  c #2F463B",
"n  c #654338",
"m  c #694A3E",
"M  c #79443F",
"N  c #7F4D3F",
"B  c #3F3F47",
"V  c #373775",
"C  c #3B3776",
"Z  c #3B3874",
"A  c #383978",
"S  c #6B3841",
"D  c #443774",
"F  c #473E75",
"G  c #4A3D76",
"H  c #493F78",
"J  c #374240",
"K  c #734144",
"L  c #7C4442",
"P  c #774C47",
"I  c #7F4B43",
"U  c #76474E",
"Y  c #714E4B",
"T  c #7B4D4B",
"R  c #77574E",
"E  c #794950",
"W  c #46437C",
"Q  c #48407A",
"!  c #BC3737",
"~  c #B9373B",
"^  c #BA383B",
"/  c #C13938",
"(  c #814C43",
")  c #845341",
"_  c #895A42",
"`  c #845149",
"'  c #BF4247",
"]  c #BF4348",
"[  c #BF4B4E",
"{  c #BF4B53",
"}  c #A87742",
"|  c #AC7A45",
" . c #AF7D48",
".. c #C44D4E",
"X. c #C15359",
"o. c #F56647",
"O. c #F66748",
"+. c #F86848",
"@. c #F67159",
"#. c #B29337",
"$. c #B49339",
"%. c #BA9A3A",
"&. c #D38D6E",
"*. c #D48E70",
"=. c #D69070",
"-. c #D99171",
";. c #EFD055",
":. c #F4D456",
">. c #F8D858",
",. c #3FAE87",
"<. c #3DB189",
"1. c #42AB84",
"2. c #6D9AB9",
"3. c #6EC49D",
"4. c #70C59E",
"5. c #6FC9A0",
"6. c #70C9A1",
"7. c #F4BC8D",
"8. c #9DDCBD",
"9. c #ADACCB",
"0. c #B1ACCB",
"q. c #B3B0CE",
"w. c #B2B2D1",
"e. c #A1E0C1",
"r. c #E2E0EF",
"t. c #E4E3F3",
"y. c #E4E4F4",
"u. c #E6E4F4",
"i. c #E7E4F4",
/* pixels */
"5.3.6.5.6.6.6.6.6.6.6.6.6.6.6.6.5.5.5.5.5.4.5.4.5.5.5.5.6.6.6.6.5.5.5.5.5.5.6.6.5.5.5.5.5.5.6.6.6.6.6.6.6.6.6.6.6.6.5.5.5.6.6.6.",
"5.5.5.5.6.6.6.6.6.6.6.6.6.6.6.6.5.5.5.5.5.5.5.5.5.5.5.5.6.6.6.6.5.5.5.5.5.5.6.6.5.5.5.5.5.5.5.5.6.6.6.6.6.6.6.6.6.6.5.5.6.6.6.6.",
"5.6.5.5.6.6.6.6.6.6.6.6.6.6.6.6.5.5.5.6.5.5.4.5.5.5.5.5.6.6.6.6.5.5.5.5.6.6.6.6.5.5.5.5.5.5.5.5.6.6.6.6.6.6.6.6.6.6.6.5.6.6.6.6.",
"5.6.3.5.6.6.6.6.6.6.6.6.6.6.6.6.5.5.5.6.5.5.5.5.5.5.5.5.6.6.6.6.5.5.5.5.6.6.6.6.5.5.5.5.5.5.5.5.6.6.6.6.6.6.6.6.6.6.6.5.6.6.6.6.",
"5.3.5.3.6.5.5.3.6.6.6.6.6.6.6.6.6.6.6.6.6.6.6.6.5.6.5.5.5.5.6.6.6.5.5.5.6.6.6.6.6.6.6.5.6.6.6.6.6.6.6.6.6.6.6.6.5.5.5.5.6.6.6.6.",
"5.6.5.5.5.5.5.5.6.6.6.6.6.6.6.6.6.6.6.6.6.6.6.6.6.6.5.6.5.5.6.6.5.5.5.5.6.6.6.6.6.6.5.5.6.6.6.6.6.6.6.6.6.6.6.6.5.5.5.6.6.6.6.6.",
"5.5.5.6.5.3.6.5.6.6.6.6.6.6.6.6.6.6.6.6.6.6.6.6.6.6.6.6.5.5.5.6.5.5.5.5.6.6.6.6.6.6.6.6.6.6.6.6.6.6.6.6.6.6.6.6.5.5.6.6.6.6.6.6.",
"5.5.3.6.5.5.5.5.6.6.6.6.6.6.6.6.6.6.6.6.6.6.6.6.6.6.6.6.5.5.6.6.5.5.5.5.6.6.6.6.6.6.6.6.6.6.6.6.6.6.6.6.6.6.6.6.5.5.6.6.6.6.6.6.",
"6.6.6.6.5.5.5.5.6.6.5.5.5.5.5.5.6.6.6.6.6.6.6.6.5.6.5.5.6.6.6.6.5.6.6.6.6.6.6.6.6.5.5.5.6.6.6.6.5.5.5.5.5.5.5.5.5.5.5.5.5.5.5.5.",
"6.6.6.5.5.5.5.5.5.5.5.4.5.5.5.5.6.6.6.6.6.6.6.6.5.6.3.5.6.6.6.6.5.5.6.6.6.6.6.6.6.6.5.5.6.6.6.6.5.5.5.5.5.5.5.5.5.5.5.5.5.5.5.5.",
"6.6.5.5.5.5.5.5.5.5.5.5.5.5.5.5.6.6.6.6.6.6.6.6.5.3.5.5.6.6.6.6.6.6.6.6.6.6.6.6.5.5.5.5.6.6.6.6.5.6.5.5.5.5.5.5.5.5.5.5.6.6.5.6.",
"6.6.5.5.5.5.5.5.3.6.5.5.5.5.5.5.6.6.6.6.6.6.6.6.5.6.5.5.6.6.6.6.6.6.6.6.6.6.6.6.5.5.5.5.6.6.6.6.6.6.5.5.5.5.5.5.5.5.5.5.6.6.6.6.",
"6.6.6.6.6.6.6.6.5.5.5.5.5.5.5.5.6.6.6.6.<.<.<.<.4.4.4.4.4.4.4.4.6.5.5.5.3.6.4.4.6.6.6.6.6.6.6.6.6.6.6.6.5.5.5.5.6.6.6.6.6.6.6.6.",
"6.6.6.6.6.6.6.6.6.5.5.5.5.5.5.5.6.6.6.6.<.<.<.<.m k k k l l l k k n l l l l l m 6.6.5.5.6.6.6.6.6.6.6.6.5.5.5.5.6.6.6.6.6.6.6.6.",
"6.6.6.6.6.6.6.6.6.6.5.5.5.5.5.5.6.6.6.6.<.<.1.1.l a d d s s s s f s s a s s a l 4.4.4.5.6.6.6.6.6.6.6.6.5.5.5.5.6.6.6.6.6.6.6.6.",
"6.6.6.6.6.6.6.6.6.6.5.5.5.5.5.5.6.6.6.6.<.<.n j ! ! o.o.o.o.o.+.o.o.o.o.o.o.! ! l K 4.5.6.6.6.6.6.6.6.6.5.5.5.5.6.6.6.6.6.6.6.6.",
"6.6.6.6.6.6.6.6.<.<.<.<.5.5.5.5.6.6.6.6.<.1.j s / / +.+.+.+.+.+.+.+.+.+.+.o./ / s k 4.4.5.5.5.5.5.6.6.6.5.5.5.5.5.5.6.6.6.6.6.6.",
"6.6.6.6.6.6.6.6.<.<.<.<.5.5.5.5.6.6.4.4.n j ! / O.+.+.+.+.+.+.+.+.+.+.+.+.+.+.o.s k 3.4.5.5.5.5.5.5.6.6.5.5.5.5.6.6.6.6.6.6.6.6.",
"6.6.6.6.6.6.6.6.<.<.<.<.5.5.5.5.6.6.4.4.h s [ ..+.+.+.+.+.+.+.+.+.+.+.+.+.+.+.o.d l 4.4.5.5.5.5.6.6.6.6.5.5.5.5.6.6.6.6.6.6.6.6.",
"6.6.6.6.6.6.6.6.<.<.<.<.5.5.5.5.6.4.m k i K r.r.@.+.+.+.+.+.+.+.+.+.+.+.+.+.+.+./ ! l m 3.5.5.5.6.6.6.6.5.5.5.5.6.6.6.6.6.6.6.6.",
"6.6.6.6.6.6.6.6.6.6.6.6.<.<.<.<.4.4.Y K i K y.y.@.+.+.+.+.+.+.+.+.+.+.+.+.+.o.+./ ! a l 5.5.5.5.6.6.6.6.6.5.6.6.5.5.5.5.6.6.6.6.",
"6.6.6.6.6.6.6.6.6.6.6.6.<.<.<.<.1 b r.r.K K y.i.../ +.+.+.+.+.+.+.+.+.+.+.+./ / / / a l 3.5.5.5.6.6.6.6.5.5.6.5.5.5.5.5.6.6.6.6.",
"6.6.6.6.6.6.6.6.6.6.5.4.<.<.<.<.  t t.i.K S t.t.../ +.+.o.o.o.o.+.+.o.+.+.o./ / / ! a l 5.5.5.5.6.6.6.6.5.5.5.5.5.5.5.5.6.6.6.6.",
"6.6.6.6.6.6.6.6.6.6.6.4.<.,.<.<.  t t.i.....q.q.' / / / / / / / / / / / / / / / / ! a l 3.5.5.5.6.6.6.6.5.5.5.5.5.5.5.5.6.6.6.6.",
"6.6.6.6.5.5.5.5.6.6.6.6.3.6.5.5.  t t.i.X.{ 0.0.] ! / / / / / ! / / / / / / / / ! ! a k 3.6.5.5.6.6.5.5.5.5.5.5.5.5.3.5.5.5.5.5.",
"6.6.6.6.5.5.5.5.6.6.6.6.5.5.5.5.  t i.i.0.0.{ ] / / / / ! / / / / / / / ! / / ! s a X 2 3.6.5.5.6.6.5.5.5.5.5.5.5.5.5.5.5.5.6.6.",
"6.6.6.6.5.5.5.5.6.6.6.6.5.5.3.5.1 b r.t.w.0.{ ..' ' ! / / / / / / / / / ! ! ! ! a u . 1 3.5.5.5.6.6.5.5.5.5.5.5.5.5.5.5.6.6.6.6.",
"6.6.6.6.5.5.5.5.6.6.6.6.5.5.6.5.3.3.J B 9.w.0.0.0.0.] / / ! / / / / ! ! s a a a c c . 1 3.3.5.5.6.6.5.5.5.5.5.5.5.5.5.5.6.6.6.6.",
"6.6.6.6.6.6.6.6.5.5.5.5.6.6.6.6.6.6.6 r 9.9.0.9.9.0...! ! ! ! ! ! / ! / a u a a M c . 1 5.5.5.5.5.5.5.5.6.6.6.6.6.6.6.6.5.5.5.5.",
"6.6.6.6.6.6.6.6.5.5.5.5.6.6.6.6.6.6.3.3.E U W W S z a a a a a s a a a a v c c c K M o 1 3.5.5.5.5.5.5.5.6.6.6.6.6.6.6.6.5.5.5.5.",
"6.6.6.6.6.6.6.6.5.5.5.5.6.6.6.6.6.6.6.4.T K H G j a p u a s g g a a g x ( L v S M z 1 5 3.5.6.5.6.6.5.5.5.6.5.5.6.6.6.6.5.5.5.5.",
"6.6.6.6.6.6.6.6.5.5.5.5.6.6.6.6.6.6.6.4.T L &.&.&.&.: : &.&.*.&.} | 7.7.&.&.( M & 1 3.5.5.5.6.6.6.5.5.5.5.5.5.5.6.6.6.6.5.5.5.5.",
"6.6.6.6.5.5.5.5.6.6.6.6.6.6.6.6.5.5.5.4.R T &.*.-.-.: : -.-.-.&.|  .7.7.-.-.( c 1 5 3.6.6.6.6.6.4.5.5.5.6.6.6.6.5.5.5.5.5.3.6.6.",
"6.6.6.6.5.5.5.5.6.6.6.6.6.6.6.6.6.5.5.4.4.4.T ` 7.7.( ( 7.7.-.-.=.-.7.7.-.-.: 0 3.3.6.6.6.6.6.6.5.5.6.3.6.6.6.6.5.5.6.3.5.5.5.5.",
"6.6.6.6.5.5.5.5.6.5.6.6.6.6.6.6.6.6.6.6.6.4.R ` 7.7.( ` 7.7.-.-.=.-.7.7.&.&., 7 3.3.5.5.6.6.6.6.6.3.5.5.6.6.6.6.3.5.5.5.5.5.5.5.",
"6.6.6.6.6.5.5.5.5.5.6.6.6.6.6.6.6.6.4.6.6.6.5.4.` ` &.-.-.-.-.-.=.=.` ( ( I #.#.9 5 3.3.6.6.6.6.6.5.5.5.6.6.6.6.6.5.5.5.5.5.6.3.",
"5.6.6.6.5.5.5.5.5.5.5.5.6.6.6.6.6.5.5.5.5.5.5.5.U L &.*.&.&.&.&.&.&.M c M I %.%.y q 3.3.e.e.e.e.6.6.6.6.6.6.6.6.5.5.5.5.6.6.6.6.",
"5.5.6.6.5.5.5.5.5.5.5.5.6.6.6.6.5.5.5.5.5.5.5.5.k a L L ( L : : ; : i f #.%.:.:.:.;.q 5 e.e.e.e.6.6.6.6.6.6.6.6.5.5.5.5.6.6.6.6.",
"6.6.6.6.5.5.5.5.5.5.5.5.6.6.6.5.5.5.5.5.5.5.6.3.k p L L S c $ + @ # u f $.%.:.>.:.;.> 1 8.e.e.e.6.6.6.6.6.6.6.6.5.5.5.5.6.6.6.6.",
"6.6.6.6.5.5.5.5.5.5.5.5.6.6.6.5.5.5.5.5.5.5.5.3.l a ! ! * $ V V V V # - %.%.>.:._ R O 1 8.e.e.e.6.6.6.6.6.6.6.6.5.5.5.5.6.6.6.6.",
"5.5.5.5.5.5.5.5.5.5.5.5.5.5.5.5.5.5.5.5.6.6.6.6.k a ! ! * # A A V V + = #.%.;.;.) M O 1 e.e.e.e.6.6.6.6.6.6.6.6.e.e.e.e.5.5.5.5.",
"5.5.5.5.5.5.5.5.5.5.5.5.5.5.5.5.5.5.5.5.6.6.5.5.2 % ! ! a p V A C C + . f f N ) #.#.= 1 8.e.e.e.6.6.6.6.6.6.6.6.e.e.e.8.5.5.5.5.",
"5.5.5.5.6.6.5.5.5.5.5.5.5.5.5.5.5.5.5.5.6.6.5.5.5 7 ! ! a p D H F F @ . u i M P #.#.9 5 e.e.e.e.6.6.6.6.6.6.6.6.e.e.e.e.6.5.5.5.",
"5.5.5.5.6.5.5.5.5.5.5.5.5.5.5.5.5.5.5.5.6.6.6.6.3.3.7 % . : &.*.*.&.;   . - #.#.> 9 3.3.e.e.e.e.6.6.6.6.6.6.6.6.e.e.e.e.6.5.5.5.",
"6.6.6.6.6.6.6.6.5.5.5.3.6.6.6.6.5.5.5.5.5.5.5.5.6.3.1   < 8 &.&.&.&.8 <   = #.#.9 5 4.5.6.6.5.5.6.6.6.6.e.e.e.e.5.5.5.5.5.5.5.5.",
"6.6.6.6.6.6.6.6.5.5.5.5.6.6.6.6.5.5.5.5.5.5.5.5.5.3.1 < 2.2.T L L T 2.2.<   = w 3.3.6.6.6.6.5.6.6.6.6.6.e.e.e.e.5.5.5.5.5.5.5.5.",
"6.6.6.6.6.6.6.6.3.5.5.5.6.6.6.6.5.5.5.5.5.5.5.5.6.5.1 3 2.2.T M S T 2.2.e 2 0 J 3.5.5.5.6.6.6.6.5.5.6.6.e.e.e.e.5.5.5.5.6.6.5.5.",
"6.6.6.6.6.6.6.6.5.5.5.5.6.6.6.6.5.5.5.5.5.5.5.5.6.5.1 @ A H ^ ~ G C 3 e 8.8.8.8.4.4.5.5.6.6.6.6.5.5.6.6.e.e.e.e.5.5.5.5.6.6.6.6.",
"5.5.5.5.6.6.6.6.6.6.6.6.5.5.5.5.5.5.5.5.5.5.5.5.5.5.6 4 V Z ^ ~ Z V 1 5 5.6.5.5.5.5.5.5.6.6.6.6.5.5.5.5.6.6.6.6.6.5.6.5.6.6.6.6.",
"5.5.5.5.6.6.6.6.6.6.6.6.5.5.5.5.5.5.5.5.5.5.5.5.6.6.5.3.4 + & % @ 4 3.3.5.6.6.5.5.5.5.5.6.6.6.6.5.5.5.5.6.6.6.6.5.5.3.5.6.6.6.6.",
"6.6.5.6.6.6.6.6.6.6.6.6.5.5.5.5.5.5.5.5.5.5.5.5.5.5.5.3.6 1 1 1 1 5 5.5.5.6.5.5.5.5.5.5.6.6.6.6.5.5.5.5.6.6.6.6.5.3.6.5.6.6.6.6.",
"6.6.6.6.6.6.6.6.6.6.6.6.5.5.5.5.5.5.5.5.5.5.5.5.5.5.5.5.5.5.5.5.3.3.5.5.6.6.5.5.5.5.5.5.6.6.6.6.3.6.6.3.6.6.6.6.5.5.6.5.6.6.6.6.",
"6.6.6.6.6.6.6.6.6.6.6.6.5.5.5.5.6.6.6.6.5.5.5.5.5.5.6.6.6.6.6.6.4.5.5.5.5.5.5.5.6.6.6.6.6.6.6.6.6.6.6.6.6.6.6.6.6.6.6.6.6.6.6.6.",
"6.6.6.6.6.6.6.6.6.6.6.6.5.5.5.5.6.6.6.6.5.5.5.5.5.5.5.5.6.6.6.6.6.5.5.5.5.5.5.5.6.6.6.6.5.5.6.6.6.6.6.6.6.6.6.6.6.6.6.6.6.6.6.6.",
"6.6.6.6.6.6.6.6.6.6.6.6.5.5.5.5.5.5.5.5.5.5.5.5.5.5.5.5.6.6.6.6.5.5.5.5.5.5.5.5.6.6.6.6.5.5.5.5.6.6.6.6.6.6.6.6.6.6.6.6.6.6.6.6.",
"6.6.6.6.6.6.6.6.6.6.6.6.5.5.5.5.5.5.5.5.5.5.5.6.5.5.5.5.6.6.6.6.5.5.5.5.5.5.5.5.6.6.6.6.5.5.5.5.6.6.6.6.6.6.6.6.6.6.6.6.6.6.6.6.",
"6.6.6.6.6.6.6.6.6.6.6.6.6.6.6.6.6.6.6.6.5.5.6.6.5.5.5.5.6.6.6.6.5.5.6.6.5.3.6.5.5.5.5.5.5.5.5.5.6.6.6.6.6.6.6.6.6.6.6.6.6.6.6.6.",
"6.6.6.6.6.6.6.6.6.6.6.6.6.6.6.6.6.6.6.6.5.5.6.6.5.5.5.5.6.6.6.6.5.5.3.5.5.5.5.5.5.5.5.5.5.5.5.5.6.6.6.6.6.6.6.6.6.6.6.6.6.6.6.6.",
"6.6.6.6.6.6.6.6.6.6.6.6.6.6.6.6.6.6.6.6.5.5.5.6.5.5.5.5.6.6.6.6.5.5.5.5.5.6.5.5.5.5.5.5.5.5.5.5.6.6.6.6.6.6.6.6.6.6.6.6.6.6.6.6.",
"6.6.6.6.6.6.6.6.6.6.6.6.6.6.6.6.6.6.6.6.5.5.5.5.5.5.5.6.6.6.6.6.5.5.5.5.5.6.3.5.5.5.5.5.5.5.5.5.6.6.6.6.6.6.6.6.6.6.6.6.6.6.6.6.",
"6.6.6.6.6.6.6.6.6.6.6.6.6.6.6.6.6.6.6.6.5.5.5.5.5.5.5.5.6.6.6.6.6.6.5.5.5.6.5.5.5.5.5.5.5.5.5.5.6.6.6.6.6.6.6.6.6.6.6.6.6.6.6.6.",
"6.6.6.6.6.6.6.6.6.6.6.6.6.6.6.6.6.6.6.6.5.5.5.5.5.5.5.5.6.6.6.6.5.3.5.5.5.3.5.5.5.5.5.5.5.5.5.5.6.6.6.6.6.6.6.6.6.6.6.6.6.6.6.6.",
"6.6.6.6.6.6.6.6.6.6.6.6.6.6.6.6.6.6.5.5.5.5.5.5.5.5.5.5.6.6.6.6.5.5.5.5.5.5.5.3.5.5.6.6.5.5.5.5.6.6.6.6.5.5.5.5.6.6.6.6.6.6.6.6.",
"6.6.6.6.6.6.6.6.6.6.6.6.6.6.6.6.5.5.5.5.5.5.5.5.5.5.5.5.6.6.6.6.3.5.6.3.5.5.6.6.5.5.5.6.5.5.5.5.6.6.6.6.5.5.5.5.6.6.6.6.6.6.6.6."
};
